<svg width="206" height="451" viewBox="0 0 206 451" fill="none" xmlns="http://www.w3.org/2000/svg">
<g filter="url(#filter0_ddd_346_148444)">
<rect width="62" height="54" transform="translate(15 12.7949)" fill="white"/>
<rect x="27" y="29.7949" width="38" height="20" rx="10" fill="#BFBFBF"/>
<g filter="url(#filter1_d_346_148444)">
<rect x="29" y="31.7949" width="16" height="16" rx="8" fill="white"/>
</g>
</g>
<g filter="url(#filter2_ddd_346_148444)">
<rect width="116" height="54" transform="translate(15 98.7949)" fill="white"/>
<rect x="27" y="110.795" width="62" height="30" rx="15" fill="#F7F7F7"/>
<path d="M40.4722 131.795V121.087H41.7173V130.667H46.4414V131.795H40.4722ZM53.0186 131.795L52.7769 130.652H52.7183C52.3179 131.155 51.9175 131.497 51.5171 131.678C51.1216 131.854 50.626 131.941 50.0303 131.941C49.2344 131.941 48.6094 131.736 48.1553 131.326C47.7061 130.916 47.4814 130.333 47.4814 129.576C47.4814 127.955 48.7778 127.105 51.3706 127.027L52.7329 126.983V126.485C52.7329 125.855 52.5962 125.391 52.3228 125.093C52.0542 124.791 51.6221 124.639 51.0264 124.639C50.3574 124.639 49.6006 124.844 48.7559 125.254L48.3823 124.324C48.7778 124.109 49.21 123.941 49.6787 123.819C50.1523 123.697 50.626 123.636 51.0996 123.636C52.0566 123.636 52.7646 123.848 53.2236 124.273C53.6875 124.698 53.9194 125.379 53.9194 126.316V131.795H53.0186ZM50.272 130.938C51.0288 130.938 51.6221 130.73 52.0518 130.315C52.4863 129.9 52.7036 129.319 52.7036 128.572V127.847L51.4878 127.898C50.521 127.933 49.8228 128.084 49.3931 128.353C48.9683 128.616 48.7559 129.029 48.7559 129.59C48.7559 130.03 48.8877 130.364 49.1514 130.594C49.4199 130.823 49.7935 130.938 50.272 130.938ZM60.167 123.636C61.2217 123.636 62.0396 123.997 62.6206 124.72C63.2065 125.438 63.4995 126.456 63.4995 127.774C63.4995 129.092 63.2041 130.118 62.6133 130.85C62.0273 131.578 61.2119 131.941 60.167 131.941C59.6445 131.941 59.166 131.846 58.7314 131.656C58.3018 131.46 57.9404 131.163 57.6475 130.762H57.5596L57.3032 131.795H56.4316V120.398H57.6475V123.167C57.6475 123.787 57.6279 124.344 57.5889 124.837H57.6475C58.2139 124.036 59.0537 123.636 60.167 123.636ZM59.9912 124.654C59.1611 124.654 58.563 124.893 58.1968 125.372C57.8306 125.845 57.6475 126.646 57.6475 127.774C57.6475 128.902 57.8354 129.71 58.2114 130.198C58.5874 130.682 59.1904 130.923 60.0205 130.923C60.7676 130.923 61.3242 130.652 61.6904 130.11C62.0566 129.563 62.2397 128.78 62.2397 127.759C62.2397 126.714 62.0566 125.936 61.6904 125.423C61.3242 124.91 60.7578 124.654 59.9912 124.654ZM69.022 131.941C67.8354 131.941 66.8979 131.58 66.2095 130.857C65.5259 130.135 65.1841 129.131 65.1841 127.847C65.1841 126.553 65.5015 125.525 66.1362 124.764C66.7759 124.002 67.6328 123.621 68.707 123.621C69.7129 123.621 70.5088 123.953 71.0947 124.617C71.6807 125.276 71.9736 126.148 71.9736 127.232V128.001H66.4438C66.4683 128.943 66.7051 129.659 67.1543 130.147C67.6084 130.635 68.2456 130.879 69.0659 130.879C69.9302 130.879 70.7847 130.699 71.6294 130.337V131.421C71.1997 131.607 70.792 131.739 70.4062 131.817C70.0254 131.9 69.564 131.941 69.022 131.941ZM68.6924 124.639C68.0479 124.639 67.5327 124.849 67.147 125.269C66.7661 125.689 66.5415 126.27 66.4731 127.012H70.6699C70.6699 126.246 70.499 125.66 70.1572 125.254C69.8154 124.844 69.3271 124.639 68.6924 124.639ZM75.2695 131.795H74.0537V120.398H75.2695V131.795Z" fill="#1F1F1F"/>
</g>
<g filter="url(#filter3_ddd_346_148444)">
<rect width="176" height="54" transform="translate(15 184.795)" fill="white"/>
<path d="M37.0195 211.338C37.0195 213.106 36.5386 214.458 35.5767 215.396C34.6196 216.329 33.2402 216.795 31.4385 216.795H28.4722V206.087H31.7534C33.4185 206.087 34.7124 206.548 35.6353 207.471C36.5581 208.394 37.0195 209.683 37.0195 211.338ZM35.7012 211.382C35.7012 209.986 35.3496 208.934 34.6465 208.226C33.9482 207.518 32.9082 207.164 31.5264 207.164H29.7173V215.718H31.2334C32.7178 215.718 33.8335 215.354 34.5806 214.627C35.3276 213.895 35.7012 212.813 35.7012 211.382ZM42.8936 208.621C43.25 208.621 43.5698 208.65 43.853 208.709L43.6846 209.837C43.3525 209.764 43.0596 209.727 42.8057 209.727C42.1562 209.727 41.5996 209.991 41.1357 210.518C40.6768 211.045 40.4473 211.702 40.4473 212.488V216.795H39.2314V208.768H40.2349L40.374 210.254H40.4326C40.7305 209.732 41.0894 209.329 41.5093 209.046C41.9292 208.763 42.3906 208.621 42.8936 208.621ZM52.2832 212.774C52.2832 214.083 51.9536 215.105 51.2944 215.843C50.6353 216.575 49.7246 216.941 48.5625 216.941C47.8447 216.941 47.2075 216.773 46.6509 216.436C46.0942 216.099 45.6646 215.616 45.3618 214.986C45.0591 214.356 44.9077 213.619 44.9077 212.774C44.9077 211.465 45.2349 210.447 45.8892 209.72C46.5435 208.987 47.4517 208.621 48.6138 208.621C49.7368 208.621 50.6279 208.995 51.2871 209.742C51.9512 210.489 52.2832 211.5 52.2832 212.774ZM46.1675 212.774C46.1675 213.799 46.3726 214.581 46.7827 215.118C47.1929 215.655 47.7959 215.923 48.5918 215.923C49.3877 215.923 49.9907 215.657 50.4009 215.125C50.8159 214.588 51.0234 213.804 51.0234 212.774C51.0234 211.753 50.8159 210.979 50.4009 210.452C49.9907 209.92 49.3828 209.654 48.5771 209.654C47.7812 209.654 47.1807 209.915 46.7754 210.438C46.3701 210.96 46.1675 211.739 46.1675 212.774ZM58.1572 216.941C57.6348 216.941 57.1562 216.846 56.7217 216.656C56.292 216.46 55.9307 216.163 55.6377 215.762H55.5498C55.6084 216.231 55.6377 216.675 55.6377 217.095V220.398H54.4219V208.768H55.4106L55.5791 209.866H55.6377C55.9502 209.427 56.314 209.109 56.729 208.914C57.144 208.719 57.6201 208.621 58.1572 208.621C59.2217 208.621 60.042 208.985 60.6182 209.712C61.1992 210.44 61.4897 211.46 61.4897 212.774C61.4897 214.092 61.1943 215.118 60.6035 215.85C60.0176 216.578 59.2021 216.941 58.1572 216.941ZM57.9814 209.654C57.1611 209.654 56.5679 209.881 56.2017 210.335C55.8354 210.789 55.6475 211.512 55.6377 212.503V212.774C55.6377 213.902 55.8257 214.71 56.2017 215.198C56.5776 215.682 57.1807 215.923 58.0107 215.923C58.7041 215.923 59.2461 215.643 59.6367 215.081C60.0322 214.52 60.23 213.746 60.23 212.759C60.23 211.758 60.0322 210.992 59.6367 210.459C59.2461 209.922 58.6943 209.654 57.9814 209.654ZM69.085 215.718H69.019C68.4575 216.534 67.6177 216.941 66.4995 216.941C65.4497 216.941 64.6318 216.583 64.0459 215.865C63.4648 215.147 63.1743 214.126 63.1743 212.803C63.1743 211.48 63.4673 210.452 64.0532 209.72C64.6392 208.987 65.4546 208.621 66.4995 208.621C67.5884 208.621 68.4233 209.017 69.0044 209.808H69.0996L69.0483 209.229L69.019 208.665V205.398H70.2349V216.795H69.2461L69.085 215.718ZM66.6533 215.923C67.4834 215.923 68.084 215.699 68.4551 215.25C68.8311 214.795 69.019 214.065 69.019 213.06V212.803C69.019 211.666 68.8286 210.855 68.4478 210.372C68.0718 209.883 67.4688 209.639 66.6387 209.639C65.9258 209.639 65.3789 209.917 64.998 210.474C64.6221 211.026 64.4341 211.807 64.4341 212.818C64.4341 213.843 64.6221 214.617 64.998 215.14C65.374 215.662 65.9258 215.923 66.6533 215.923ZM79.749 212.774C79.749 214.083 79.4194 215.105 78.7603 215.843C78.1011 216.575 77.1904 216.941 76.0283 216.941C75.3105 216.941 74.6733 216.773 74.1167 216.436C73.5601 216.099 73.1304 215.616 72.8276 214.986C72.5249 214.356 72.3735 213.619 72.3735 212.774C72.3735 211.465 72.7007 210.447 73.355 209.72C74.0093 208.987 74.9175 208.621 76.0796 208.621C77.2026 208.621 78.0938 208.995 78.7529 209.742C79.417 210.489 79.749 211.5 79.749 212.774ZM73.6333 212.774C73.6333 213.799 73.8384 214.581 74.2485 215.118C74.6587 215.655 75.2617 215.923 76.0576 215.923C76.8535 215.923 77.4565 215.657 77.8667 215.125C78.2817 214.588 78.4893 213.804 78.4893 212.774C78.4893 211.753 78.2817 210.979 77.8667 210.452C77.4565 209.92 76.8486 209.654 76.043 209.654C75.2471 209.654 74.6465 209.915 74.2412 210.438C73.8359 210.96 73.6333 211.739 73.6333 212.774ZM88.4429 216.795L86.9707 212.085C86.8779 211.797 86.7046 211.143 86.4507 210.123H86.3921C86.1968 210.977 86.0259 211.636 85.8794 212.1L84.3633 216.795H82.957L80.7671 208.768H82.0415C82.5591 210.784 82.9521 212.32 83.2207 213.375C83.4941 214.429 83.6504 215.14 83.6895 215.506H83.748C83.8018 215.228 83.8872 214.869 84.0044 214.429C84.1265 213.985 84.2314 213.633 84.3193 213.375L85.7915 208.768H87.1099L88.5454 213.375C88.8188 214.214 89.0044 214.92 89.1021 215.491H89.1606C89.1802 215.315 89.2314 215.044 89.3145 214.678C89.4023 214.312 89.9126 212.342 90.8452 208.768H92.105L89.8857 216.795H88.4429ZM99.0557 216.795V211.602C99.0557 210.948 98.9067 210.459 98.6089 210.137C98.311 209.815 97.8447 209.654 97.21 209.654C96.3701 209.654 95.7549 209.881 95.3643 210.335C94.9736 210.789 94.7783 211.539 94.7783 212.583V216.795H93.5625V208.768H94.5513L94.749 209.866H94.8076C95.0566 209.471 95.4058 209.166 95.855 208.951C96.3042 208.731 96.8047 208.621 97.3564 208.621C98.3232 208.621 99.0508 208.855 99.5391 209.324C100.027 209.788 100.271 210.533 100.271 211.558V216.795H99.0557ZM116.905 216.795V211.573C116.905 210.933 116.768 210.455 116.495 210.137C116.221 209.815 115.796 209.654 115.22 209.654C114.463 209.654 113.904 209.871 113.543 210.306C113.182 210.74 113.001 211.409 113.001 212.312V216.795H111.785V211.573C111.785 210.933 111.648 210.455 111.375 210.137C111.102 209.815 110.674 209.654 110.093 209.654C109.332 209.654 108.772 209.883 108.416 210.342C108.064 210.796 107.889 211.543 107.889 212.583V216.795H106.673V208.768H107.662L107.859 209.866H107.918C108.147 209.476 108.47 209.17 108.885 208.951C109.305 208.731 109.773 208.621 110.291 208.621C111.546 208.621 112.366 209.075 112.752 209.983H112.811C113.05 209.563 113.396 209.231 113.851 208.987C114.305 208.743 114.822 208.621 115.403 208.621C116.312 208.621 116.99 208.855 117.439 209.324C117.894 209.788 118.121 210.533 118.121 211.558V216.795H116.905ZM124.024 216.941C122.837 216.941 121.9 216.58 121.211 215.857C120.528 215.135 120.186 214.131 120.186 212.847C120.186 211.553 120.503 210.525 121.138 209.764C121.778 209.002 122.635 208.621 123.709 208.621C124.715 208.621 125.511 208.953 126.097 209.617C126.683 210.276 126.976 211.148 126.976 212.232V213.001H121.446C121.47 213.943 121.707 214.659 122.156 215.147C122.61 215.635 123.248 215.879 124.068 215.879C124.932 215.879 125.787 215.699 126.631 215.337V216.421C126.202 216.607 125.794 216.739 125.408 216.817C125.027 216.9 124.566 216.941 124.024 216.941ZM123.694 209.639C123.05 209.639 122.535 209.849 122.149 210.269C121.768 210.689 121.543 211.27 121.475 212.012H125.672C125.672 211.246 125.501 210.66 125.159 210.254C124.817 209.844 124.329 209.639 123.694 209.639ZM134.549 216.795V211.602C134.549 210.948 134.4 210.459 134.102 210.137C133.804 209.815 133.338 209.654 132.703 209.654C131.863 209.654 131.248 209.881 130.857 210.335C130.467 210.789 130.271 211.539 130.271 212.583V216.795H129.056V208.768H130.044L130.242 209.866H130.301C130.55 209.471 130.899 209.166 131.348 208.951C131.797 208.731 132.298 208.621 132.85 208.621C133.816 208.621 134.544 208.855 135.032 209.324C135.521 209.788 135.765 210.533 135.765 211.558V216.795H134.549ZM139.412 208.768V213.975C139.412 214.629 139.561 215.118 139.859 215.44C140.157 215.762 140.623 215.923 141.258 215.923C142.098 215.923 142.71 215.694 143.096 215.235C143.487 214.776 143.682 214.026 143.682 212.986V208.768H144.898V216.795H143.895L143.719 215.718H143.653C143.404 216.114 143.057 216.417 142.613 216.626C142.173 216.836 141.67 216.941 141.104 216.941C140.127 216.941 139.395 216.709 138.907 216.246C138.423 215.782 138.182 215.04 138.182 214.019V208.768H139.412Z" fill="#1F1F1F"/>
<path d="M175.999 209.245C175.999 209.13 175.953 209.015 175.861 208.927C175.676 208.751 175.376 208.751 175.191 208.927L167 216.708L158.808 208.927C158.624 208.751 158.323 208.751 158.139 208.927C157.954 209.102 157.954 209.387 158.139 209.563L166.665 217.663C166.85 217.839 167.15 217.839 167.335 217.663L175.862 209.563C175.955 209.475 176 209.359 176 209.244L175.999 209.245Z" fill="#1F1F1F"/>
</g>
<g filter="url(#filter4_ddd_346_148444)">
<rect width="104" height="54" transform="translate(15 270.795)" fill="white"/>
<rect x="27" y="283.795" width="80" height="28" rx="2" fill="#1F1F1F"/>
<path d="M46.5923 293.515H49.3472C50.6252 293.515 51.5477 293.701 52.1147 294.073C52.686 294.446 52.9717 295.034 52.9717 295.838C52.9717 296.38 52.832 296.83 52.5527 297.19C52.2734 297.55 51.8714 297.776 51.3467 297.869V297.933C51.9984 298.055 52.4766 298.299 52.7812 298.663C53.0902 299.022 53.2446 299.511 53.2446 300.129C53.2446 300.963 52.9526 301.616 52.3687 302.09C51.7889 302.56 50.9806 302.795 49.9438 302.795H46.5923V293.515ZM48.1094 297.349H49.5693C50.2041 297.349 50.6675 297.249 50.9595 297.05C51.2515 296.847 51.3975 296.504 51.3975 296.022C51.3975 295.586 51.2388 295.271 50.9214 295.076C50.6082 294.882 50.1089 294.784 49.4233 294.784H48.1094V297.349ZM48.1094 298.58V301.519H49.7217C50.3564 301.519 50.8346 301.398 51.1562 301.157C51.4821 300.912 51.645 300.527 51.645 300.002C51.645 299.52 51.48 299.162 51.1499 298.929C50.8198 298.696 50.3184 298.58 49.6455 298.58H48.1094ZM59.9668 302.795L59.7573 301.875H59.6812C59.4738 302.2 59.1776 302.456 58.7925 302.643C58.4116 302.829 57.9757 302.922 57.4849 302.922C56.6343 302.922 55.9995 302.71 55.5806 302.287C55.1616 301.864 54.9521 301.223 54.9521 300.364V295.774H56.4565V300.104C56.4565 300.641 56.5666 301.045 56.7866 301.316C57.0067 301.583 57.3516 301.716 57.8213 301.716C58.4476 301.716 58.9067 301.53 59.1987 301.157C59.495 300.781 59.6431 300.152 59.6431 299.272V295.774H61.1411V302.795H59.9668ZM65.8828 301.716C66.2467 301.716 66.6107 301.659 66.9746 301.544V302.668C66.8096 302.74 66.5959 302.799 66.3335 302.846C66.0754 302.896 65.8066 302.922 65.5273 302.922C64.1139 302.922 63.4072 302.177 63.4072 300.688V296.904H62.4487V296.244L63.4771 295.698L63.9849 294.213H64.9053V295.774H66.9048V296.904H64.9053V300.662C64.9053 301.022 64.9941 301.288 65.1719 301.462C65.3538 301.631 65.5908 301.716 65.8828 301.716ZM70.999 301.716C71.363 301.716 71.7269 301.659 72.0908 301.544V302.668C71.9258 302.74 71.7121 302.799 71.4497 302.846C71.1916 302.896 70.9229 302.922 70.6436 302.922C69.2301 302.922 68.5234 302.177 68.5234 300.688V296.904H67.5649V296.244L68.5933 295.698L69.1011 294.213H70.0215V295.774H72.021V296.904H70.0215V300.662C70.0215 301.022 70.1104 301.288 70.2881 301.462C70.4701 301.631 70.707 301.716 70.999 301.716ZM79.7271 299.272C79.7271 300.419 79.4329 301.314 78.8447 301.957C78.2565 302.6 77.4377 302.922 76.3882 302.922C75.7323 302.922 75.1525 302.774 74.6489 302.478C74.1453 302.181 73.7581 301.756 73.4873 301.202C73.2165 300.647 73.0811 300.004 73.0811 299.272C73.0811 298.134 73.373 297.245 73.957 296.606C74.541 295.967 75.3641 295.647 76.4263 295.647C77.4419 295.647 78.2459 295.975 78.8384 296.631C79.4308 297.283 79.7271 298.163 79.7271 299.272ZM74.6172 299.272C74.6172 300.893 75.216 301.703 76.4136 301.703C77.5985 301.703 78.1909 300.893 78.1909 299.272C78.1909 297.668 77.5942 296.866 76.4009 296.866C75.7746 296.866 75.3197 297.074 75.0361 297.488C74.7568 297.903 74.6172 298.498 74.6172 299.272ZM87.6235 302.795H86.1255V298.479C86.1255 297.937 86.0155 297.533 85.7954 297.266C85.5796 297 85.2347 296.866 84.7607 296.866C84.1302 296.866 83.6689 297.052 83.377 297.425C83.085 297.797 82.939 298.421 82.939 299.297V302.795H81.4473V295.774H82.6152L82.8247 296.695H82.9009C83.1125 296.361 83.4129 296.102 83.8022 295.92C84.1916 295.738 84.6232 295.647 85.0972 295.647C86.7814 295.647 87.6235 296.504 87.6235 298.218V302.795Z" fill="white"/>
</g>
<g filter="url(#filter5_ddd_346_148444)">
<rect width="176" height="76" transform="translate(15 356.795)" fill="white"/>
<path d="M32.4785 389.795H30.208V380.977H27.3003V379.087H35.3862V380.977H32.4785V389.795ZM36.7632 379.49C36.7632 378.762 37.1685 378.398 37.979 378.398C38.7896 378.398 39.1948 378.762 39.1948 379.49C39.1948 379.836 39.0923 380.107 38.8872 380.303C38.687 380.493 38.3843 380.588 37.979 380.588C37.1685 380.588 36.7632 380.222 36.7632 379.49ZM39.0923 389.795H36.8584V381.606H39.0923V389.795ZM44.8931 388.162C45.2837 388.162 45.7524 388.076 46.2993 387.905V389.568C45.7427 389.817 45.0591 389.941 44.2485 389.941C43.355 389.941 42.7031 389.717 42.293 389.268C41.8877 388.813 41.6851 388.135 41.6851 387.231V383.284H40.6157V382.339L41.8462 381.592L42.4907 379.863H43.9189V381.606H46.2114V383.284H43.9189V387.231C43.9189 387.549 44.0068 387.783 44.1826 387.935C44.3633 388.086 44.6001 388.162 44.8931 388.162ZM50.1958 389.795H47.9619V378.398H50.1958V389.795ZM55.938 383.042C55.4644 383.042 55.0933 383.193 54.8247 383.496C54.5562 383.794 54.4023 384.219 54.3633 384.771H57.498C57.4883 384.219 57.3442 383.794 57.0659 383.496C56.7876 383.193 56.4116 383.042 55.938 383.042ZM56.2529 389.941C54.9346 389.941 53.9043 389.578 53.1621 388.85C52.4199 388.123 52.0488 387.092 52.0488 385.759C52.0488 384.387 52.3906 383.328 53.0742 382.581C53.7627 381.829 54.7124 381.453 55.9233 381.453C57.0806 381.453 57.9814 381.782 58.626 382.441C59.2705 383.101 59.5928 384.011 59.5928 385.173V386.257H54.312C54.3364 386.892 54.5244 387.388 54.876 387.744C55.2275 388.101 55.7207 388.279 56.3555 388.279C56.8486 388.279 57.3149 388.228 57.7544 388.125C58.1938 388.022 58.6528 387.859 59.1313 387.634V389.363C58.7407 389.558 58.3232 389.702 57.8789 389.795C57.4346 389.893 56.8926 389.941 56.2529 389.941ZM68.7554 388.162C69.146 388.162 69.6147 388.076 70.1616 387.905V389.568C69.605 389.817 68.9214 389.941 68.1108 389.941C67.2173 389.941 66.5654 389.717 66.1553 389.268C65.75 388.813 65.5474 388.135 65.5474 387.231V383.284H64.478V382.339L65.7085 381.592L66.353 379.863H67.7812V381.606H70.0737V383.284H67.7812V387.231C67.7812 387.549 67.8691 387.783 68.0449 387.935C68.2256 388.086 68.4624 388.162 68.7554 388.162ZM75.2153 383.042C74.7417 383.042 74.3706 383.193 74.1021 383.496C73.8335 383.794 73.6797 384.219 73.6406 384.771H76.7754C76.7656 384.219 76.6216 383.794 76.3433 383.496C76.0649 383.193 75.689 383.042 75.2153 383.042ZM75.5303 389.941C74.2119 389.941 73.1816 389.578 72.4395 388.85C71.6973 388.123 71.3262 387.092 71.3262 385.759C71.3262 384.387 71.668 383.328 72.3516 382.581C73.04 381.829 73.9897 381.453 75.2007 381.453C76.3579 381.453 77.2588 381.782 77.9033 382.441C78.5479 383.101 78.8701 384.011 78.8701 385.173V386.257H73.5894C73.6138 386.892 73.8018 387.388 74.1533 387.744C74.5049 388.101 74.998 388.279 75.6328 388.279C76.126 388.279 76.5923 388.228 77.0317 388.125C77.4712 388.022 77.9302 387.859 78.4087 387.634V389.363C78.0181 389.558 77.6006 389.702 77.1562 389.795C76.7119 389.893 76.1699 389.941 75.5303 389.941ZM82.3638 385.613L79.7271 381.606H82.2612L83.8506 384.214L85.4546 381.606H87.9888L85.3228 385.613L88.1133 389.795H85.5718L83.8506 386.99L82.1221 389.795H79.5879L82.3638 385.613ZM92.8081 388.162C93.1987 388.162 93.6675 388.076 94.2144 387.905V389.568C93.6577 389.817 92.9741 389.941 92.1636 389.941C91.27 389.941 90.6182 389.717 90.208 389.268C89.8027 388.813 89.6001 388.135 89.6001 387.231V383.284H88.5308V382.339L89.7612 381.592L90.4058 379.863H91.834V381.606H94.1265V383.284H91.834V387.231C91.834 387.549 91.9219 387.783 92.0977 387.935C92.2783 388.086 92.5151 388.162 92.8081 388.162Z" fill="#1F1F1F"/>
<path d="M34.5146 408.946C34.5146 409.888 34.1729 410.623 33.4893 411.15C32.8057 411.678 31.8779 411.941 30.7061 411.941C29.4365 411.941 28.46 411.778 27.7764 411.451V410.25C28.2158 410.435 28.6943 410.582 29.2119 410.689C29.7295 410.796 30.2422 410.85 30.75 410.85C31.5801 410.85 32.2051 410.694 32.625 410.381C33.0449 410.064 33.2549 409.625 33.2549 409.063C33.2549 408.692 33.1792 408.389 33.0278 408.155C32.8813 407.916 32.6323 407.696 32.2808 407.496C31.9341 407.295 31.4043 407.068 30.6914 406.814C29.6953 406.458 28.9824 406.036 28.5527 405.547C28.1279 405.059 27.9155 404.422 27.9155 403.636C27.9155 402.811 28.2256 402.154 28.8457 401.666C29.4658 401.177 30.2861 400.933 31.3066 400.933C32.3711 400.933 33.3501 401.128 34.2437 401.519L33.8555 402.603C32.9717 402.232 32.1123 402.046 31.2773 402.046C30.6182 402.046 30.103 402.188 29.7319 402.471C29.3608 402.754 29.1753 403.147 29.1753 403.65C29.1753 404.021 29.2437 404.327 29.3804 404.566C29.5171 404.8 29.7466 405.018 30.0688 405.218C30.396 405.413 30.894 405.63 31.563 405.87C32.686 406.27 33.4575 406.7 33.8774 407.159C34.3022 407.618 34.5146 408.213 34.5146 408.946ZM37.6641 403.768V408.975C37.6641 409.629 37.813 410.118 38.1108 410.44C38.4087 410.762 38.875 410.923 39.5098 410.923C40.3496 410.923 40.9624 410.694 41.3481 410.235C41.7388 409.776 41.9341 409.026 41.9341 407.986V403.768H43.1499V411.795H42.1465L41.9707 410.718H41.9048C41.6558 411.114 41.3091 411.417 40.8647 411.626C40.4253 411.836 39.9224 411.941 39.356 411.941C38.3794 411.941 37.647 411.709 37.1587 411.246C36.6753 410.782 36.4336 410.04 36.4336 409.019V403.768H37.6641ZM49.4707 403.636C50.5254 403.636 51.3433 403.997 51.9243 404.72C52.5103 405.438 52.8032 406.456 52.8032 407.774C52.8032 409.092 52.5078 410.118 51.917 410.85C51.3311 411.578 50.5156 411.941 49.4707 411.941C48.9482 411.941 48.4697 411.846 48.0352 411.656C47.6055 411.46 47.2441 411.163 46.9512 410.762H46.8633L46.6069 411.795H45.7354V400.398H46.9512V403.167C46.9512 403.787 46.9316 404.344 46.8926 404.837H46.9512C47.5176 404.036 48.3574 403.636 49.4707 403.636ZM49.2949 404.654C48.4648 404.654 47.8667 404.893 47.5005 405.372C47.1343 405.845 46.9512 406.646 46.9512 407.774C46.9512 408.902 47.1392 409.71 47.5151 410.198C47.8911 410.682 48.4941 410.923 49.3242 410.923C50.0713 410.923 50.6279 410.652 50.9941 410.11C51.3604 409.563 51.5435 408.78 51.5435 407.759C51.5435 406.714 51.3604 405.936 50.9941 405.423C50.6279 404.91 50.0615 404.654 49.2949 404.654ZM57.5273 410.938C57.7422 410.938 57.9497 410.923 58.1499 410.894C58.3501 410.86 58.5088 410.826 58.626 410.792V411.722C58.4941 411.785 58.2988 411.836 58.04 411.875C57.7861 411.919 57.5566 411.941 57.3516 411.941C55.7988 411.941 55.0225 411.124 55.0225 409.488V404.712H53.8726V404.126L55.0225 403.621L55.5352 401.907H56.2383V403.768H58.5674V404.712H56.2383V409.437C56.2383 409.92 56.353 410.291 56.5825 410.55C56.812 410.809 57.127 410.938 57.5273 410.938ZM61.4531 411.795H60.2373V403.768H61.4531V411.795ZM60.1348 401.592C60.1348 401.314 60.2031 401.111 60.3398 400.984C60.4766 400.853 60.6475 400.787 60.8525 400.787C61.0479 400.787 61.2163 400.853 61.3579 400.984C61.4995 401.116 61.5703 401.319 61.5703 401.592C61.5703 401.866 61.4995 402.071 61.3579 402.208C61.2163 402.339 61.0479 402.405 60.8525 402.405C60.6475 402.405 60.4766 402.339 60.3398 402.208C60.2031 402.071 60.1348 401.866 60.1348 401.592ZM66.624 410.938C66.8389 410.938 67.0464 410.923 67.2466 410.894C67.4468 410.86 67.6055 410.826 67.7227 410.792V411.722C67.5908 411.785 67.3955 411.836 67.1367 411.875C66.8828 411.919 66.6533 411.941 66.4482 411.941C64.8955 411.941 64.1191 411.124 64.1191 409.488V404.712H62.9692V404.126L64.1191 403.621L64.6318 401.907H65.335V403.768H67.6641V404.712H65.335V409.437C65.335 409.92 65.4497 410.291 65.6792 410.55C65.9087 410.809 66.2236 410.938 66.624 410.938ZM70.5498 411.795H69.334V400.398H70.5498V411.795ZM76.519 411.941C75.3325 411.941 74.395 411.58 73.7065 410.857C73.0229 410.135 72.6812 409.131 72.6812 407.847C72.6812 406.553 72.9985 405.525 73.6333 404.764C74.2729 404.002 75.1299 403.621 76.2041 403.621C77.21 403.621 78.0059 403.953 78.5918 404.617C79.1777 405.276 79.4707 406.148 79.4707 407.232V408.001H73.9409C73.9653 408.943 74.2021 409.659 74.6514 410.147C75.1055 410.635 75.7427 410.879 76.563 410.879C77.4272 410.879 78.2817 410.699 79.1265 410.337V411.421C78.6968 411.607 78.2891 411.739 77.9033 411.817C77.5225 411.9 77.061 411.941 76.519 411.941ZM76.1895 404.639C75.5449 404.639 75.0298 404.849 74.644 405.269C74.2632 405.689 74.0386 406.27 73.9702 407.012H78.167C78.167 406.246 77.9961 405.66 77.6543 405.254C77.3125 404.844 76.8242 404.639 76.1895 404.639ZM88.04 410.938C88.2549 410.938 88.4624 410.923 88.6626 410.894C88.8628 410.86 89.0215 410.826 89.1387 410.792V411.722C89.0068 411.785 88.8115 411.836 88.5527 411.875C88.2988 411.919 88.0693 411.941 87.8643 411.941C86.3115 411.941 85.5352 411.124 85.5352 409.488V404.712H84.3853V404.126L85.5352 403.621L86.0479 401.907H86.751V403.768H89.0801V404.712H86.751V409.437C86.751 409.92 86.8657 410.291 87.0952 410.55C87.3247 410.809 87.6396 410.938 88.04 410.938ZM94.1411 411.941C92.9546 411.941 92.0171 411.58 91.3286 410.857C90.645 410.135 90.3032 409.131 90.3032 407.847C90.3032 406.553 90.6206 405.525 91.2554 404.764C91.895 404.002 92.752 403.621 93.8262 403.621C94.832 403.621 95.6279 403.953 96.2139 404.617C96.7998 405.276 97.0928 406.148 97.0928 407.232V408.001H91.563C91.5874 408.943 91.8242 409.659 92.2734 410.147C92.7275 410.635 93.3647 410.879 94.1851 410.879C95.0493 410.879 95.9038 410.699 96.7485 410.337V411.421C96.3188 411.607 95.9111 411.739 95.5254 411.817C95.1445 411.9 94.6831 411.941 94.1411 411.941ZM93.8115 404.639C93.167 404.639 92.6519 404.849 92.2661 405.269C91.8853 405.689 91.6606 406.27 91.5923 407.012H95.7891C95.7891 406.246 95.6182 405.66 95.2764 405.254C94.9346 404.844 94.4463 404.639 93.8115 404.639ZM101.106 407.686L98.3159 403.768H99.7002L101.817 406.844L103.926 403.768H105.296L102.505 407.686L105.442 411.795H104.065L101.817 408.543L99.5464 411.795H98.1694L101.106 407.686ZM109.632 410.938C109.847 410.938 110.054 410.923 110.254 410.894C110.455 410.86 110.613 410.826 110.73 410.792V411.722C110.599 411.785 110.403 411.836 110.145 411.875C109.891 411.919 109.661 411.941 109.456 411.941C107.903 411.941 107.127 411.124 107.127 409.488V404.712H105.977V404.126L107.127 403.621L107.64 401.907H108.343V403.768H110.672V404.712H108.343V409.437C108.343 409.92 108.458 410.291 108.687 410.55C108.917 410.809 109.231 410.938 109.632 410.938Z" fill="#1F1F1F"/>
</g>
<defs>
<filter id="filter0_ddd_346_148444" x="0" y="0.794922" width="92" height="84" filterUnits="userSpaceOnUse" color-interpolation-filters="sRGB">
<feFlood flood-opacity="0" result="BackgroundImageFix"/>
<feColorMatrix in="SourceAlpha" type="matrix" values="0 0 0 0 0 0 0 0 0 0 0 0 0 0 0 0 0 0 127 0" result="hardAlpha"/>
<feMorphology radius="6" operator="dilate" in="SourceAlpha" result="effect1_dropShadow_346_148444"/>
<feOffset dy="3"/>
<feGaussianBlur stdDeviation="4.5"/>
<feColorMatrix type="matrix" values="0 0 0 0 0.121569 0 0 0 0 0.121569 0 0 0 0 0.121569 0 0 0 0.05 0"/>
<feBlend mode="normal" in2="BackgroundImageFix" result="effect1_dropShadow_346_148444"/>
<feColorMatrix in="SourceAlpha" type="matrix" values="0 0 0 0 0 0 0 0 0 0 0 0 0 0 0 0 0 0 127 0" result="hardAlpha"/>
<feOffset dy="2"/>
<feGaussianBlur stdDeviation="2.5"/>
<feColorMatrix type="matrix" values="0 0 0 0 0.121569 0 0 0 0 0.121569 0 0 0 0 0.121569 0 0 0 0.1 0"/>
<feBlend mode="normal" in2="effect1_dropShadow_346_148444" result="effect2_dropShadow_346_148444"/>
<feColorMatrix in="SourceAlpha" type="matrix" values="0 0 0 0 0 0 0 0 0 0 0 0 0 0 0 0 0 0 127 0" result="hardAlpha"/>
<feOffset dy="1"/>
<feGaussianBlur stdDeviation="0.75"/>
<feColorMatrix type="matrix" values="0 0 0 0 0.121569 0 0 0 0 0.121569 0 0 0 0 0.121569 0 0 0 0.04 0"/>
<feBlend mode="normal" in2="effect2_dropShadow_346_148444" result="effect3_dropShadow_346_148444"/>
<feBlend mode="normal" in="SourceGraphic" in2="effect3_dropShadow_346_148444" result="shape"/>
</filter>
<filter id="filter1_d_346_148444" x="25" y="29.7949" width="24" height="24" filterUnits="userSpaceOnUse" color-interpolation-filters="sRGB">
<feFlood flood-opacity="0" result="BackgroundImageFix"/>
<feColorMatrix in="SourceAlpha" type="matrix" values="0 0 0 0 0 0 0 0 0 0 0 0 0 0 0 0 0 0 127 0" result="hardAlpha"/>
<feOffset dy="2"/>
<feGaussianBlur stdDeviation="2"/>
<feColorMatrix type="matrix" values="0 0 0 0 0 0 0 0 0 0 0 0 0 0 0 0 0 0 0.15 0"/>
<feBlend mode="normal" in2="BackgroundImageFix" result="effect1_dropShadow_346_148444"/>
<feBlend mode="normal" in="SourceGraphic" in2="effect1_dropShadow_346_148444" result="shape"/>
</filter>
<filter id="filter2_ddd_346_148444" x="0" y="86.7949" width="146" height="84" filterUnits="userSpaceOnUse" color-interpolation-filters="sRGB">
<feFlood flood-opacity="0" result="BackgroundImageFix"/>
<feColorMatrix in="SourceAlpha" type="matrix" values="0 0 0 0 0 0 0 0 0 0 0 0 0 0 0 0 0 0 127 0" result="hardAlpha"/>
<feMorphology radius="6" operator="dilate" in="SourceAlpha" result="effect1_dropShadow_346_148444"/>
<feOffset dy="3"/>
<feGaussianBlur stdDeviation="4.5"/>
<feColorMatrix type="matrix" values="0 0 0 0 0.121569 0 0 0 0 0.121569 0 0 0 0 0.121569 0 0 0 0.05 0"/>
<feBlend mode="normal" in2="BackgroundImageFix" result="effect1_dropShadow_346_148444"/>
<feColorMatrix in="SourceAlpha" type="matrix" values="0 0 0 0 0 0 0 0 0 0 0 0 0 0 0 0 0 0 127 0" result="hardAlpha"/>
<feOffset dy="2"/>
<feGaussianBlur stdDeviation="2.5"/>
<feColorMatrix type="matrix" values="0 0 0 0 0.121569 0 0 0 0 0.121569 0 0 0 0 0.121569 0 0 0 0.1 0"/>
<feBlend mode="normal" in2="effect1_dropShadow_346_148444" result="effect2_dropShadow_346_148444"/>
<feColorMatrix in="SourceAlpha" type="matrix" values="0 0 0 0 0 0 0 0 0 0 0 0 0 0 0 0 0 0 127 0" result="hardAlpha"/>
<feOffset dy="1"/>
<feGaussianBlur stdDeviation="0.75"/>
<feColorMatrix type="matrix" values="0 0 0 0 0.121569 0 0 0 0 0.121569 0 0 0 0 0.121569 0 0 0 0.04 0"/>
<feBlend mode="normal" in2="effect2_dropShadow_346_148444" result="effect3_dropShadow_346_148444"/>
<feBlend mode="normal" in="SourceGraphic" in2="effect3_dropShadow_346_148444" result="shape"/>
</filter>
<filter id="filter3_ddd_346_148444" x="0" y="172.795" width="206" height="84" filterUnits="userSpaceOnUse" color-interpolation-filters="sRGB">
<feFlood flood-opacity="0" result="BackgroundImageFix"/>
<feColorMatrix in="SourceAlpha" type="matrix" values="0 0 0 0 0 0 0 0 0 0 0 0 0 0 0 0 0 0 127 0" result="hardAlpha"/>
<feMorphology radius="6" operator="dilate" in="SourceAlpha" result="effect1_dropShadow_346_148444"/>
<feOffset dy="3"/>
<feGaussianBlur stdDeviation="4.5"/>
<feColorMatrix type="matrix" values="0 0 0 0 0.121569 0 0 0 0 0.121569 0 0 0 0 0.121569 0 0 0 0.05 0"/>
<feBlend mode="normal" in2="BackgroundImageFix" result="effect1_dropShadow_346_148444"/>
<feColorMatrix in="SourceAlpha" type="matrix" values="0 0 0 0 0 0 0 0 0 0 0 0 0 0 0 0 0 0 127 0" result="hardAlpha"/>
<feOffset dy="2"/>
<feGaussianBlur stdDeviation="2.5"/>
<feColorMatrix type="matrix" values="0 0 0 0 0.121569 0 0 0 0 0.121569 0 0 0 0 0.121569 0 0 0 0.1 0"/>
<feBlend mode="normal" in2="effect1_dropShadow_346_148444" result="effect2_dropShadow_346_148444"/>
<feColorMatrix in="SourceAlpha" type="matrix" values="0 0 0 0 0 0 0 0 0 0 0 0 0 0 0 0 0 0 127 0" result="hardAlpha"/>
<feOffset dy="1"/>
<feGaussianBlur stdDeviation="0.75"/>
<feColorMatrix type="matrix" values="0 0 0 0 0.121569 0 0 0 0 0.121569 0 0 0 0 0.121569 0 0 0 0.04 0"/>
<feBlend mode="normal" in2="effect2_dropShadow_346_148444" result="effect3_dropShadow_346_148444"/>
<feBlend mode="normal" in="SourceGraphic" in2="effect3_dropShadow_346_148444" result="shape"/>
</filter>
<filter id="filter4_ddd_346_148444" x="0" y="258.795" width="134" height="84" filterUnits="userSpaceOnUse" color-interpolation-filters="sRGB">
<feFlood flood-opacity="0" result="BackgroundImageFix"/>
<feColorMatrix in="SourceAlpha" type="matrix" values="0 0 0 0 0 0 0 0 0 0 0 0 0 0 0 0 0 0 127 0" result="hardAlpha"/>
<feMorphology radius="6" operator="dilate" in="SourceAlpha" result="effect1_dropShadow_346_148444"/>
<feOffset dy="3"/>
<feGaussianBlur stdDeviation="4.5"/>
<feColorMatrix type="matrix" values="0 0 0 0 0.121569 0 0 0 0 0.121569 0 0 0 0 0.121569 0 0 0 0.05 0"/>
<feBlend mode="normal" in2="BackgroundImageFix" result="effect1_dropShadow_346_148444"/>
<feColorMatrix in="SourceAlpha" type="matrix" values="0 0 0 0 0 0 0 0 0 0 0 0 0 0 0 0 0 0 127 0" result="hardAlpha"/>
<feOffset dy="2"/>
<feGaussianBlur stdDeviation="2.5"/>
<feColorMatrix type="matrix" values="0 0 0 0 0.121569 0 0 0 0 0.121569 0 0 0 0 0.121569 0 0 0 0.1 0"/>
<feBlend mode="normal" in2="effect1_dropShadow_346_148444" result="effect2_dropShadow_346_148444"/>
<feColorMatrix in="SourceAlpha" type="matrix" values="0 0 0 0 0 0 0 0 0 0 0 0 0 0 0 0 0 0 127 0" result="hardAlpha"/>
<feOffset dy="1"/>
<feGaussianBlur stdDeviation="0.75"/>
<feColorMatrix type="matrix" values="0 0 0 0 0.121569 0 0 0 0 0.121569 0 0 0 0 0.121569 0 0 0 0.04 0"/>
<feBlend mode="normal" in2="effect2_dropShadow_346_148444" result="effect3_dropShadow_346_148444"/>
<feBlend mode="normal" in="SourceGraphic" in2="effect3_dropShadow_346_148444" result="shape"/>
</filter>
<filter id="filter5_ddd_346_148444" x="0" y="344.795" width="206" height="106" filterUnits="userSpaceOnUse" color-interpolation-filters="sRGB">
<feFlood flood-opacity="0" result="BackgroundImageFix"/>
<feColorMatrix in="SourceAlpha" type="matrix" values="0 0 0 0 0 0 0 0 0 0 0 0 0 0 0 0 0 0 127 0" result="hardAlpha"/>
<feMorphology radius="6" operator="dilate" in="SourceAlpha" result="effect1_dropShadow_346_148444"/>
<feOffset dy="3"/>
<feGaussianBlur stdDeviation="4.5"/>
<feColorMatrix type="matrix" values="0 0 0 0 0.121569 0 0 0 0 0.121569 0 0 0 0 0.121569 0 0 0 0.05 0"/>
<feBlend mode="normal" in2="BackgroundImageFix" result="effect1_dropShadow_346_148444"/>
<feColorMatrix in="SourceAlpha" type="matrix" values="0 0 0 0 0 0 0 0 0 0 0 0 0 0 0 0 0 0 127 0" result="hardAlpha"/>
<feOffset dy="2"/>
<feGaussianBlur stdDeviation="2.5"/>
<feColorMatrix type="matrix" values="0 0 0 0 0.121569 0 0 0 0 0.121569 0 0 0 0 0.121569 0 0 0 0.1 0"/>
<feBlend mode="normal" in2="effect1_dropShadow_346_148444" result="effect2_dropShadow_346_148444"/>
<feColorMatrix in="SourceAlpha" type="matrix" values="0 0 0 0 0 0 0 0 0 0 0 0 0 0 0 0 0 0 127 0" result="hardAlpha"/>
<feOffset dy="1"/>
<feGaussianBlur stdDeviation="0.75"/>
<feColorMatrix type="matrix" values="0 0 0 0 0.121569 0 0 0 0 0.121569 0 0 0 0 0.121569 0 0 0 0.04 0"/>
<feBlend mode="normal" in2="effect2_dropShadow_346_148444" result="effect3_dropShadow_346_148444"/>
<feBlend mode="normal" in="SourceGraphic" in2="effect3_dropShadow_346_148444" result="shape"/>
</filter>
</defs>
</svg>
