<svg width="1092" height="683" viewBox="0 0 1092 683" fill="none" xmlns="http://www.w3.org/2000/svg">
<mask id="path-1-outside-1_528_65" maskUnits="userSpaceOnUse" x="147.063" y="333.296" width="816.009" height="408.758" fill="black">
<rect fill="white" x="147.063" y="333.296" width="816.009" height="408.758"/>
<path fill-rule="evenodd" clip-rule="evenodd" d="M236.665 372.881C215.088 364.768 190.974 375.579 182.7 397.134C174.391 418.781 185.203 443.064 206.849 451.373C208.575 452.036 210.318 452.577 212.068 453.001L908.887 655.824C910.597 658.792 913.299 661.214 916.746 662.537C924.726 665.6 933.678 661.614 936.742 653.634C939.805 645.654 935.819 636.701 927.839 633.638C924.272 632.269 920.51 632.308 917.167 633.483L236.939 372.985L236.665 372.88L236.665 372.881Z"/>
</mask>
<path fill-rule="evenodd" clip-rule="evenodd" d="M236.665 372.881C215.088 364.768 190.974 375.579 182.7 397.134C174.391 418.781 185.203 443.064 206.849 451.373C208.575 452.036 210.318 452.577 212.068 453.001L908.887 655.824C910.597 658.792 913.299 661.214 916.746 662.537C924.726 665.6 933.678 661.614 936.742 653.634C939.805 645.654 935.819 636.701 927.839 633.638C924.272 632.269 920.51 632.308 917.167 633.483L236.939 372.985L236.665 372.88L236.665 372.881Z" fill="#252423"/>
<path d="M236.665 372.881L251.348 378.049L246.069 393.048L231.186 387.451L236.665 372.881ZM212.068 453.001L215.73 437.872L216.076 437.955L216.418 438.055L212.068 453.001ZM908.887 655.824L913.237 640.879L919.247 642.628L922.373 648.052L908.887 655.824ZM917.167 633.483L922.328 648.168L916.937 650.063L911.6 648.019L917.167 633.483ZM236.939 372.985L231.372 387.522L231.363 387.518L236.939 372.985ZM236.665 372.88L221.982 367.713L227.297 352.614L242.241 358.347L236.665 372.88ZM231.186 387.451C217.612 382.347 202.438 389.15 197.232 402.713L168.168 391.556C179.51 362.009 212.565 347.189 242.144 358.312L231.186 387.451ZM197.232 402.713C192.004 416.333 198.807 431.613 212.427 436.841L201.271 465.905C171.599 454.515 156.778 421.228 168.168 391.556L197.232 402.713ZM212.427 436.841C213.526 437.263 214.629 437.605 215.73 437.872L208.406 468.13C206.007 467.549 203.624 466.809 201.271 465.905L212.427 436.841ZM216.418 438.055L913.237 640.879L904.537 670.77L207.718 467.946L216.418 438.055ZM922.373 648.052C922.373 648.051 922.367 648.04 922.348 648.024C922.339 648.016 922.329 648.009 922.321 648.004C922.312 647.999 922.312 648 922.324 648.005L911.167 677.069C904.268 674.42 898.828 669.545 895.4 663.597L922.373 648.052ZM922.324 648.005C922.337 648.01 922.336 648.008 922.322 648.006C922.309 648.004 922.295 648.003 922.283 648.003C922.259 648.004 922.252 648.008 922.256 648.007C922.26 648.005 922.253 648.007 922.236 648.024C922.227 648.033 922.218 648.044 922.212 648.055C922.204 648.067 922.204 648.069 922.21 648.056L951.274 659.212C945.129 675.218 927.173 683.213 911.167 677.069L922.324 648.005ZM922.21 648.056C922.215 648.042 922.213 648.044 922.211 648.057C922.208 648.07 922.208 648.084 922.208 648.097C922.209 648.121 922.213 648.128 922.211 648.123C922.209 648.119 922.212 648.127 922.229 648.143C922.238 648.152 922.249 648.161 922.26 648.168C922.271 648.175 922.274 648.175 922.261 648.17L933.417 619.106C949.423 625.25 957.418 643.206 951.274 659.212L922.21 648.056ZM922.261 648.17C922.248 648.165 922.248 648.166 922.259 648.168C922.269 648.17 922.281 648.172 922.294 648.172C922.306 648.172 922.315 648.171 922.321 648.17C922.324 648.169 922.326 648.169 922.327 648.169C922.328 648.168 922.328 648.168 922.328 648.168L912.006 618.797C918.702 616.444 926.274 616.364 933.417 619.106L922.261 648.17ZM911.6 648.019L231.372 387.522L242.506 358.449L922.734 618.946L911.6 648.019ZM231.363 387.518L231.09 387.413L242.241 358.347L242.515 358.452L231.363 387.518ZM251.348 378.048L251.348 378.049L221.982 367.714L221.982 367.713L251.348 378.048Z" fill="white" mask="url(#path-1-outside-1_528_65)"/>
<mask id="path-3-outside-2_528_65" maskUnits="userSpaceOnUse" x="177.5" y="-56.2904" width="812.633" height="408.258" fill="black">
<rect fill="white" x="177.5" y="-56.2904" width="812.633" height="408.258"/>
<path fill-rule="evenodd" clip-rule="evenodd" d="M267.305 311.978C245.728 320.092 221.614 309.28 213.34 287.725C205.03 266.079 215.842 241.795 237.489 233.486C239.217 232.822 240.963 232.28 242.716 231.856L936.723 29.8513C938.437 27.32 940.916 25.2697 943.986 24.0911C951.967 21.0278 960.919 25.0138 963.982 32.994C967.046 40.9742 963.06 49.9267 955.08 52.99C951.292 54.444 947.285 54.3099 943.793 52.9142L267.305 311.979L267.305 311.978Z"/>
</mask>
<path fill-rule="evenodd" clip-rule="evenodd" d="M267.305 311.978C245.728 320.092 221.614 309.28 213.34 287.725C205.03 266.079 215.842 241.795 237.489 233.486C239.217 232.822 240.963 232.28 242.716 231.856L936.723 29.8513C938.437 27.32 940.916 25.2697 943.986 24.0911C951.967 21.0278 960.919 25.0138 963.982 32.994C967.046 40.9742 963.06 49.9267 955.08 52.99C951.292 54.444 947.285 54.3099 943.793 52.9142L267.305 311.979L267.305 311.978Z" fill="#252423"/>
<path d="M267.305 311.978L281.986 306.806L276.705 291.813L261.826 297.408L267.305 311.978ZM242.716 231.856L246.375 246.986L246.723 246.902L247.067 246.802L242.716 231.856ZM936.723 29.8513L941.073 44.797L946.465 43.2277L949.613 38.5782L936.723 29.8513ZM943.793 52.9142L949.569 38.4599L943.913 36.1996L938.226 38.3778L943.793 52.9142ZM267.305 311.979L252.624 317.151L257.937 332.235L272.872 326.515L267.305 311.979ZM261.826 297.408C248.252 302.513 233.078 295.709 227.872 282.147L198.808 293.303C210.15 322.851 243.205 337.67 272.784 326.548L261.826 297.408ZM227.872 282.147C222.643 268.526 229.446 253.246 243.067 248.018L231.91 218.954C202.238 230.344 187.418 263.631 198.808 293.303L227.872 282.147ZM243.067 248.018C244.168 247.595 245.272 247.253 246.375 246.986L239.058 216.727C236.654 217.308 234.267 218.049 231.91 218.954L243.067 248.018ZM247.067 246.802L941.073 44.797L932.373 14.9057L238.366 216.911L247.067 246.802ZM949.613 38.5782C949.61 38.5821 949.601 38.5941 949.583 38.6087C949.574 38.6158 949.566 38.6213 949.559 38.6248C949.553 38.6285 949.554 38.6274 949.565 38.6231L938.408 9.55914C932.269 11.9156 927.275 16.0412 923.834 21.1245L949.613 38.5782ZM949.565 38.6231C949.578 38.618 949.576 38.6199 949.563 38.6222C949.55 38.6243 949.536 38.6252 949.523 38.6247C949.5 38.6239 949.493 38.6195 949.497 38.6214C949.501 38.6233 949.493 38.6212 949.477 38.6041C949.468 38.5948 949.459 38.5838 949.452 38.573C949.445 38.5614 949.445 38.5589 949.45 38.5723L978.514 27.4156C972.37 11.4096 954.414 3.41503 938.408 9.55914L949.565 38.6231ZM949.45 38.5723C949.456 38.5857 949.454 38.584 949.451 38.5705C949.449 38.5578 949.448 38.5438 949.449 38.5309C949.45 38.5072 949.454 38.5003 949.452 38.5046C949.45 38.5089 949.452 38.501 949.469 38.4845C949.479 38.4755 949.49 38.4669 949.501 38.4599C949.512 38.4525 949.515 38.4529 949.501 38.458L960.658 67.522C976.664 61.3779 984.659 43.4216 978.514 27.4156L949.45 38.5723ZM949.501 38.458C949.488 38.463 949.489 38.4614 949.501 38.4593C949.513 38.4573 949.526 38.4561 949.539 38.4563C949.563 38.4567 949.572 38.4611 949.569 38.4599L938.016 67.3685C945.004 70.1615 953.068 70.4354 960.658 67.522L949.501 38.458ZM938.226 38.3778L261.739 297.443L272.872 326.515L949.359 67.4506L938.226 38.3778ZM281.987 306.807L281.986 306.806L252.623 317.149L252.624 317.151L281.987 306.807Z" fill="white" mask="url(#path-3-outside-2_528_65)"/>
<mask id="path-5-outside-3_528_65" maskUnits="userSpaceOnUse" x="0.810548" y="99.0215" width="456" height="456" fill="black">
<rect fill="white" x="0.810548" y="99.0215" width="456" height="456"/>
<path fill-rule="evenodd" clip-rule="evenodd" d="M87.8391 169.069C44.2605 207.851 16.8105 264.365 16.8105 327.29C16.8105 388.942 43.161 444.44 85.2138 483.135C94.2832 435.69 99.5927 379.395 99.5927 318.8C99.5927 264.309 95.2992 213.296 87.8391 169.069ZM98.805 494.63C134.643 522.455 179.658 539.021 228.542 539.021C345.478 539.021 440.273 444.226 440.273 327.29C440.273 210.354 345.478 115.559 228.542 115.559C180.948 115.559 137.023 131.262 101.663 157.77C110.241 205.019 115.159 260.052 115.159 318.8C115.159 383.792 109.139 444.239 98.805 494.63Z"/>
</mask>
<path fill-rule="evenodd" clip-rule="evenodd" d="M87.8391 169.069C44.2605 207.851 16.8105 264.365 16.8105 327.29C16.8105 388.942 43.161 444.44 85.2138 483.135C94.2832 435.69 99.5927 379.395 99.5927 318.8C99.5927 264.309 95.2992 213.296 87.8391 169.069ZM98.805 494.63C134.643 522.455 179.658 539.021 228.542 539.021C345.478 539.021 440.273 444.226 440.273 327.29C440.273 210.354 345.478 115.559 228.542 115.559C180.948 115.559 137.023 131.262 101.663 157.77C110.241 205.019 115.159 260.052 115.159 318.8C115.159 383.792 109.139 444.239 98.805 494.63Z" fill="#252423"/>
<path d="M87.8391 169.069L103.188 166.48L98.5085 138.737L77.491 157.441L87.8391 169.069ZM85.2138 483.135L74.6739 494.59L95.2524 513.525L100.503 486.058L85.2138 483.135ZM98.805 494.63L83.5565 491.503L81.6114 500.988L89.259 506.925L98.805 494.63ZM101.663 157.77L92.3264 145.315L84.6294 151.085L86.3476 160.55L101.663 157.77ZM32.3764 327.29C32.3764 268.993 57.7871 216.65 98.1872 180.698L77.491 157.441C30.7339 199.051 1.24467 259.737 1.24467 327.29H32.3764ZM95.7538 471.681C56.7696 435.809 32.3764 384.41 32.3764 327.29H1.24467C1.24467 393.475 29.5523 453.071 74.6739 494.59L95.7538 471.681ZM100.503 486.058C109.777 437.541 115.159 380.26 115.159 318.8H84.0268C84.0268 378.531 78.7893 433.839 69.9248 480.213L100.503 486.058ZM115.159 318.8C115.159 263.522 110.805 211.639 103.188 166.48L72.49 171.658C79.793 214.954 84.0268 265.096 84.0268 318.8H115.159ZM228.542 523.456C183.235 523.456 141.555 508.115 108.351 482.335L89.259 506.925C127.731 536.795 176.08 554.587 228.542 554.587V523.456ZM424.707 327.29C424.707 435.629 336.881 523.456 228.542 523.456V554.587C354.075 554.587 455.839 452.823 455.839 327.29H424.707ZM228.542 131.125C336.881 131.125 424.707 218.951 424.707 327.29H455.839C455.839 201.757 354.075 99.9931 228.542 99.9931V131.125ZM111 170.224C143.758 145.667 184.429 131.125 228.542 131.125V99.9931C177.468 99.9931 130.287 116.857 92.3264 145.315L111 170.224ZM130.724 318.8C130.724 259.222 125.74 203.251 116.979 154.989L86.3476 160.55C94.7412 206.787 99.5927 260.883 99.5927 318.8H130.724ZM114.054 497.757C124.626 446.204 130.724 384.698 130.724 318.8H99.5927C99.5927 382.887 93.6525 442.274 83.5565 491.503L114.054 497.757Z" fill="white" mask="url(#path-5-outside-3_528_65)"/>
<mask id="path-7-outside-4_528_65" maskUnits="userSpaceOnUse" x="265.431" y="262.393" width="826" height="127" fill="black">
<rect fill="white" x="265.431" y="262.393" width="826" height="127"/>
<path fill-rule="evenodd" clip-rule="evenodd" d="M349.206 367.622C342.685 371.301 335.201 373.393 327.244 373.393C301.942 373.393 281.431 352.248 281.431 326.164C281.431 300.081 301.942 278.936 327.244 278.936C337.35 278.936 346.692 282.309 354.268 288.024L1049.85 345.921C1052.52 343.744 1055.93 342.438 1059.64 342.438C1068.18 342.438 1075.11 349.367 1075.11 357.915C1075.11 366.463 1068.18 373.393 1059.64 373.393C1055.59 373.393 1051.9 371.837 1049.14 369.29L349.206 367.622Z"/>
</mask>
<path fill-rule="evenodd" clip-rule="evenodd" d="M349.206 367.622C342.685 371.301 335.201 373.393 327.244 373.393C301.942 373.393 281.431 352.248 281.431 326.164C281.431 300.081 301.942 278.936 327.244 278.936C337.35 278.936 346.692 282.309 354.268 288.024L1049.85 345.921C1052.52 343.744 1055.93 342.438 1059.64 342.438C1068.18 342.438 1075.11 349.367 1075.11 357.915C1075.11 366.463 1068.18 373.393 1059.64 373.393C1055.59 373.393 1051.9 371.837 1049.14 369.29L349.206 367.622Z" fill="#252423"/>
<path d="M349.206 367.622L349.243 352.057L345.135 352.047L341.557 354.065L349.206 367.622ZM354.268 288.024L344.895 300.451L348.49 303.162L352.977 303.536L354.268 288.024ZM1049.85 345.921L1048.56 361.433L1054.83 361.954L1059.7 357.978L1049.85 345.921ZM1049.14 369.29L1059.7 357.853L1055.24 353.739L1049.18 353.725L1049.14 369.29ZM341.557 354.065C337.294 356.47 332.435 357.827 327.244 357.827V388.958C337.968 388.958 348.076 386.132 356.854 381.18L341.557 354.065ZM327.244 357.827C310.982 357.827 296.997 344.101 296.997 326.164H265.865C265.865 360.395 292.902 388.958 327.244 388.958V357.827ZM296.997 326.164C296.997 308.228 310.982 294.502 327.244 294.502V263.37C292.902 263.37 265.865 291.934 265.865 326.164H296.997ZM327.244 294.502C333.816 294.502 339.896 296.68 344.895 300.451L363.642 275.597C353.489 267.939 340.885 263.37 327.244 263.37V294.502ZM352.977 303.536L1048.56 361.433L1051.15 330.408L355.559 272.511L352.977 303.536ZM1059.7 357.978C1059.7 357.978 1059.7 357.98 1059.69 357.983C1059.69 357.986 1059.68 357.99 1059.67 357.994C1059.65 357.998 1059.64 358.001 1059.63 358.003C1059.62 358.005 1059.62 358.004 1059.64 358.004V326.872C1052.21 326.872 1045.35 329.5 1040.01 333.864L1059.7 357.978ZM1059.64 358.004C1059.65 358.004 1059.65 358.005 1059.63 358.002C1059.62 358 1059.61 357.995 1059.6 357.99C1059.58 357.981 1059.57 357.974 1059.57 357.978C1059.58 357.981 1059.57 357.976 1059.56 357.954C1059.56 357.943 1059.55 357.929 1059.55 357.917C1059.55 357.903 1059.55 357.901 1059.55 357.915H1090.68C1090.68 340.77 1076.78 326.872 1059.64 326.872V358.004ZM1059.55 357.915C1059.55 357.93 1059.55 357.927 1059.55 357.914C1059.55 357.901 1059.56 357.888 1059.56 357.876C1059.57 357.854 1059.58 357.849 1059.57 357.853C1059.57 357.856 1059.58 357.849 1059.6 357.84C1059.61 357.835 1059.62 357.831 1059.63 357.828C1059.65 357.826 1059.65 357.827 1059.64 357.827V388.959C1076.78 388.959 1090.68 375.06 1090.68 357.915H1059.55ZM1059.64 357.827C1059.62 357.827 1059.62 357.826 1059.64 357.828C1059.65 357.83 1059.66 357.834 1059.67 357.839C1059.69 357.848 1059.7 357.855 1059.7 357.853L1038.58 380.728C1044.1 385.824 1051.52 388.959 1059.64 388.959V357.827ZM1049.18 353.725L349.243 352.057L349.168 383.188L1049.1 384.856L1049.18 353.725Z" fill="white" mask="url(#path-7-outside-4_528_65)"/>
</svg>
