<svg width="1920" height="1080" viewBox="0 0 1920 1080" fill="none" xmlns="http://www.w3.org/2000/svg">
<g clip-path="url(#clip0_518_174680)">
<circle cx="500" cy="216" r="1" fill="white"/>
<ellipse cx="0.956522" cy="1" rx="0.956522" ry="1" transform="matrix(1 0 0 -1 301 551)" fill="white"/>
<ellipse cx="0.956522" cy="1" rx="0.956522" ry="1" transform="matrix(1 0 0 -1 107 494)" fill="white"/>
<circle cx="324" cy="383" r="1" fill="white"/>
<ellipse cx="0.978723" cy="1" rx="0.978723" ry="1" transform="matrix(1 0 0 -1 105 246)" fill="white"/>
<ellipse cx="1.46809" cy="1.5" rx="1.46809" ry="1.5" transform="matrix(1 0 0 -1 54 139)" fill="white"/>
<circle cx="322" cy="652" r="1" fill="white"/>
<circle cx="747" cy="521" r="1" fill="white"/>
<ellipse cx="0.977778" cy="1" rx="0.977778" ry="1" transform="matrix(1 0 0 -1 535 112)" fill="white"/>
<circle cx="783" cy="150" r="1" fill="white"/>
<circle cx="1" cy="1" r="1" transform="matrix(1 0 0 -1 535 574)" fill="white"/>
<circle cx="1" cy="1" r="1" transform="matrix(1 0 0 -1 579 648)" fill="white"/>
<circle cx="362" cy="73" r="1" fill="white"/>
<circle cx="1.5" cy="1.5" r="1.5" transform="matrix(1 0 0 -1 184 659)" fill="white"/>
<circle cx="519" cy="343" r="1" fill="white"/>
<circle cx="1" cy="1" r="1" transform="matrix(1 0 0 -1 778 636)" fill="white"/>
<circle cx="1217" cy="449" r="1" fill="white"/>
<circle cx="1317.5" cy="535.5" r="1.5" fill="white"/>
<ellipse cx="0.978723" cy="1" rx="0.978723" ry="1" transform="matrix(1 0 0 -1 1100 332)" fill="white"/>
<circle cx="790" cy="314" r="1" fill="white"/>
<circle cx="790" cy="421" r="1" fill="white"/>
<circle cx="898.5" cy="529.5" r="1.5" fill="white"/>
<circle cx="964" cy="615" r="1" fill="white"/>
<ellipse cx="0.956522" cy="1" rx="0.956522" ry="1" transform="matrix(1 0 0 -1 629 250)" fill="white"/>
<circle cx="1237" cy="44" r="1" fill="white"/>
<ellipse cx="0.977778" cy="1" rx="0.977778" ry="1" transform="matrix(1 0 0 -1 1216 226)" fill="white"/>
<ellipse cx="1.56818" cy="1.5" rx="1.56818" ry="1.5" transform="matrix(1 0 0 -1 -1 461)" fill="white"/>
<circle cx="1438" cy="44" r="1" fill="white"/>
<circle cx="1588" cy="51" r="1" fill="white"/>
<ellipse cx="1.02273" cy="1" rx="1.02273" ry="1" transform="matrix(1 0 0 -1 1181 636)" fill="white"/>
<ellipse cx="1.4375" cy="1.5" rx="1.4375" ry="1.5" transform="matrix(1 0 0 -1 1457 615)" fill="white"/>
<circle cx="1700" cy="64" r="1" fill="white"/>
<circle cx="1" cy="1" r="1" transform="matrix(1 0 0 -1 1661 722)" fill="white"/>
<circle cx="1" cy="1" r="1" transform="matrix(1 0 0 -1 1677 612)" fill="white"/>
<circle cx="1811" cy="354" r="1" fill="white"/>
<ellipse cx="1.56818" cy="1.5" rx="1.56818" ry="1.5" transform="matrix(1 0 0 -1 1716 404)" fill="white"/>
<circle cx="1099" cy="150" r="1" fill="white"/>
<ellipse cx="0.978723" cy="1" rx="0.978723" ry="1" transform="matrix(1 0 0 -1 931 252)" fill="white"/>
<ellipse cx="1.46809" cy="1.5" rx="1.46809" ry="1.5" transform="matrix(1 0 0 -1 917 129)" fill="white"/>
<ellipse cx="0.978723" cy="1" rx="0.978723" ry="1" transform="matrix(1 0 0 -1 851 61)" fill="white"/>
<ellipse cx="0.978723" cy="1" rx="0.978723" ry="1" transform="matrix(1 0 0 -1 910 350)" fill="white"/>
<circle cx="1" cy="1" r="1" transform="matrix(1 0 0 -1 1296 649)" fill="white"/>
<circle cx="1.5" cy="1.5" r="1.5" transform="matrix(1 0 0 -1 1774 671)" fill="white"/>
<circle cx="1521" cy="321" r="1" fill="white"/>
<circle cx="1687" cy="167" r="1" fill="white"/>
<circle cx="1541" cy="236" r="1" fill="white"/>
<circle cx="1" cy="1" r="1" transform="matrix(1 0 0 -1 1457 431)" fill="white"/>
<circle cx="1" cy="1" r="1" transform="matrix(1 0 0 -1 1382 349)" fill="white"/>
<circle cx="1454.5" cy="501.5" r="1.5" fill="white"/>
<ellipse cx="1.04444" cy="1" rx="1.04444" ry="1" transform="matrix(1 0 0 -1 1433 171)" fill="white"/>
<ellipse cx="1.04444" cy="1" rx="1.04444" ry="1" transform="matrix(1 0 0 -1 1319 151)" fill="white"/>
<circle cx="1754" cy="256" r="1" fill="white"/>
<ellipse cx="1.53333" cy="1.5" rx="1.53333" ry="1.5" transform="matrix(1 0 0 -1 1721 505)" fill="white"/>
</g>
<defs>
<clipPath id="clip0_518_174680">
<rect width="1920" height="1080" fill="white"/>
</clipPath>
</defs>
</svg>
