<svg width="278" height="527" viewBox="0 0 278 527" fill="none" xmlns="http://www.w3.org/2000/svg">
<g filter="url(#filter0_ddd_346_148452)">
<rect width="250" height="498" transform="translate(14 7.79492)" fill="white"/>
<path d="M37.6685 37.8213C37.6685 38.7881 37.3193 39.5498 36.6211 40.1064C35.9277 40.6631 34.9609 40.9414 33.7207 40.9414C32.5781 40.9414 31.5674 40.7266 30.6885 40.2969V38.1875C31.4111 38.5098 32.0215 38.7368 32.5195 38.8687C33.0225 39.0005 33.4814 39.0664 33.8965 39.0664C34.3945 39.0664 34.7754 38.9712 35.0391 38.7808C35.3076 38.5903 35.4419 38.3071 35.4419 37.9312C35.4419 37.7212 35.3833 37.5356 35.2661 37.3745C35.1489 37.2085 34.9756 37.0498 34.7461 36.8984C34.5215 36.7471 34.0601 36.5054 33.3618 36.1733C32.7075 35.8657 32.2168 35.5703 31.8896 35.2871C31.5625 35.0039 31.3013 34.6743 31.106 34.2983C30.9106 33.9224 30.813 33.4829 30.813 32.98C30.813 32.0327 31.1328 31.2881 31.7725 30.7461C32.417 30.2041 33.3057 29.9331 34.4385 29.9331C34.9951 29.9331 35.5249 29.999 36.0278 30.1309C36.5356 30.2627 37.0654 30.4482 37.6172 30.6875L36.8848 32.4526C36.3135 32.2183 35.8398 32.0547 35.4639 31.9619C35.0928 31.8691 34.7266 31.8228 34.3652 31.8228C33.9355 31.8228 33.606 31.9229 33.3765 32.123C33.147 32.3232 33.0322 32.5845 33.0322 32.9067C33.0322 33.1069 33.0786 33.2827 33.1714 33.4341C33.2642 33.5806 33.4106 33.7246 33.6108 33.8662C33.8159 34.0029 34.2969 34.252 35.0537 34.6133C36.0547 35.0918 36.7407 35.5728 37.1118 36.0562C37.4829 36.5347 37.6685 37.123 37.6685 37.8213ZM49.3286 35.4263C49.3286 37.1987 48.8892 38.561 48.0103 39.5132C47.1313 40.4653 45.8716 40.9414 44.231 40.9414C42.5903 40.9414 41.3306 40.4653 40.4517 39.5132C39.5728 38.561 39.1333 37.1938 39.1333 35.4116C39.1333 33.6294 39.5728 32.2695 40.4517 31.332C41.3354 30.3896 42.6001 29.9185 44.2456 29.9185C45.8911 29.9185 47.1484 30.3921 48.0176 31.3394C48.8916 32.2866 49.3286 33.6489 49.3286 35.4263ZM41.5137 35.4263C41.5137 36.6226 41.7407 37.5234 42.1948 38.1289C42.6489 38.7344 43.3276 39.0371 44.231 39.0371C46.0425 39.0371 46.9482 37.8335 46.9482 35.4263C46.9482 33.0142 46.0474 31.8081 44.2456 31.8081C43.3423 31.8081 42.6611 32.1133 42.2021 32.7236C41.7432 33.3291 41.5137 34.23 41.5137 35.4263ZM53.8184 34.8403H54.5508C55.2686 34.8403 55.7983 34.7207 56.1401 34.4814C56.4819 34.2422 56.6528 33.8662 56.6528 33.3535C56.6528 32.8457 56.4771 32.4844 56.1255 32.2695C55.7788 32.0547 55.2393 31.9473 54.5068 31.9473H53.8184V34.8403ZM53.8184 36.686V40.7949H51.5479V30.0869H54.668C56.123 30.0869 57.1997 30.353 57.8979 30.8853C58.5962 31.4126 58.9453 32.2158 58.9453 33.2949C58.9453 33.9248 58.772 34.4863 58.4253 34.9795C58.0786 35.4678 57.5879 35.8511 56.9531 36.1294C58.5645 38.5366 59.6143 40.0918 60.1025 40.7949H57.583L55.0269 36.686H53.8184ZM65.5811 40.7949H63.3105V31.9766H60.4028V30.0869H68.4888V31.9766H65.5811V40.7949Z" fill="#1F1F1F"/>
<path fill-rule="evenodd" clip-rule="evenodd" d="M42 60.7949C37.0294 60.7949 33 64.8244 33 69.7949C33 74.7655 37.0294 78.7949 42 78.7949C46.9706 78.7949 51 74.7655 51 69.7949C51 64.8244 46.9706 60.7949 42 60.7949ZM42 77.7949C46.4183 77.7949 50 74.2132 50 69.7949C50 65.3766 46.4183 61.7949 42 61.7949C37.5817 61.7949 34 65.3766 34 69.7949C34 74.2132 37.5817 77.7949 42 77.7949Z" fill="#1F1F1F"/>
<path d="M71.2969 76.7949L69.7861 72.9351H64.9219L63.4277 76.7949H62L66.7979 64.6094H67.9849L72.7578 76.7949H71.2969ZM69.3462 71.665L67.9351 67.9048C67.7524 67.4289 67.5643 66.8451 67.3706 66.1533C67.2489 66.6846 67.0745 67.2684 66.8477 67.9048L65.4199 71.665H69.3462ZM84.437 73.6157C84.1216 73.2394 83.7923 72.6943 83.4492 71.9805H84.0469C84.7497 72.8105 85.4967 73.4248 86.2881 73.8232V74.1221C85.4967 74.5205 84.7497 75.1348 84.0469 75.9648H83.4492C83.7923 75.251 84.1216 74.7059 84.437 74.3296H76.2275V73.6157H84.437ZM98.7808 76.7949H90.4385V75.6909L96.8799 65.9292H90.6377V64.6592H98.5981V65.7632L92.1567 75.5166H98.7808V76.7949Z" fill="#1F1F1F"/>
<path fill-rule="evenodd" clip-rule="evenodd" d="M42 104.795C37.0294 104.795 33 108.824 33 113.795C33 118.766 37.0294 122.795 42 122.795C46.9706 122.795 51 118.766 51 113.795C51 108.824 46.9706 104.795 42 104.795ZM42 121.795C46.4183 121.795 50 118.213 50 113.795C50 109.377 46.4183 105.795 42 105.795C37.5817 105.795 34 109.377 34 113.795C34 118.213 37.5817 121.795 42 121.795Z" fill="#1F1F1F"/>
<path d="M71.0229 120.795H62.6807V119.691L69.1221 109.929H62.8799V108.659H70.8403V109.763L64.3989 119.517H71.0229V120.795ZM83.3911 117.616C83.0757 117.239 82.7464 116.694 82.4033 115.98H83.001C83.7038 116.811 84.4508 117.425 85.2422 117.823V118.122C84.4508 118.521 83.7038 119.135 83.001 119.965H82.4033C82.7464 119.251 83.0757 118.706 83.3911 118.33H75.1816V117.616H83.3911ZM98.0088 120.795L96.498 116.935H91.6338L90.1396 120.795H88.7119L93.5098 108.609H94.6968L99.4697 120.795H98.0088ZM96.0581 115.665L94.647 111.905C94.4644 111.429 94.2762 110.845 94.0825 110.153C93.9608 110.685 93.7865 111.268 93.5596 111.905L92.1318 115.665H96.0581Z" fill="#1F1F1F"/>
<path d="M33.5815 170.795H31.3477V160.087H37.4854V161.947H33.5815V164.708H37.2144V166.562H33.5815V170.795ZM39.5801 170.795V160.087H41.8506V170.795H39.5801ZM44.5459 170.795V160.087H46.8164V168.92H51.1597V170.795H44.5459ZM57.1582 170.795H54.8877V161.977H51.98V160.087H60.0659V161.977H57.1582V170.795ZM67.8809 170.795H61.7139V160.087H67.8809V161.947H63.9844V164.298H67.6099V166.159H63.9844V168.92H67.8809V170.795ZM72.3926 164.84H73.125C73.8428 164.84 74.3726 164.721 74.7144 164.481C75.0562 164.242 75.2271 163.866 75.2271 163.354C75.2271 162.846 75.0513 162.484 74.6997 162.27C74.353 162.055 73.8135 161.947 73.0811 161.947H72.3926V164.84ZM72.3926 166.686V170.795H70.1221V160.087H73.2422C74.6973 160.087 75.7739 160.353 76.4722 160.885C77.1704 161.413 77.5195 162.216 77.5195 163.295C77.5195 163.925 77.3462 164.486 76.9995 164.979C76.6528 165.468 76.1621 165.851 75.5273 166.129C77.1387 168.537 78.1885 170.092 78.6768 170.795H76.1572L73.6011 166.686H72.3926Z" fill="#1F1F1F"/>
<rect x="30" y="187.795" width="218" height="48" rx="24" fill="#F7F7F7"/>
<path fill-rule="evenodd" clip-rule="evenodd" d="M65.9812 220.041L60.6325 214.205C61.8376 212.944 62.5 211.295 62.5 209.545C62.5 207.742 61.798 206.047 60.5227 204.772C59.2474 203.498 57.5527 202.795 55.75 202.795C53.9473 202.795 52.2517 203.497 50.9773 204.772C49.7029 206.048 49 207.742 49 209.545C49 211.348 49.702 213.043 50.9773 214.318C52.2526 215.592 53.9473 216.295 55.75 216.295C57.3034 216.295 58.7758 215.774 59.9692 214.814L65.3179 220.649C65.407 220.746 65.5276 220.795 65.65 220.795C65.7589 220.795 65.8678 220.756 65.9542 220.677C66.1378 220.509 66.1495 220.224 65.9821 220.042L65.9812 220.041ZM49.8991 209.545C49.8991 206.319 52.5235 203.695 55.7491 203.695C58.9747 203.695 61.5991 206.319 61.5991 209.545C61.5991 212.771 58.9747 215.395 55.7491 215.395C52.5235 215.395 49.8991 212.771 49.8991 209.545Z" fill="#6D6D6D"/>
<path d="M81.5146 214.946C81.5146 215.888 81.1729 216.623 80.4893 217.15C79.8057 217.678 78.8779 217.941 77.7061 217.941C76.4365 217.941 75.46 217.778 74.7764 217.451V216.25C75.2158 216.435 75.6943 216.582 76.2119 216.689C76.7295 216.796 77.2422 216.85 77.75 216.85C78.5801 216.85 79.2051 216.694 79.625 216.381C80.0449 216.064 80.2549 215.625 80.2549 215.063C80.2549 214.692 80.1792 214.389 80.0278 214.155C79.8813 213.916 79.6323 213.696 79.2808 213.496C78.9341 213.295 78.4043 213.068 77.6914 212.814C76.6953 212.458 75.9824 212.036 75.5527 211.547C75.1279 211.059 74.9155 210.422 74.9155 209.636C74.9155 208.811 75.2256 208.154 75.8457 207.666C76.4658 207.177 77.2861 206.933 78.3066 206.933C79.3711 206.933 80.3501 207.128 81.2437 207.519L80.8555 208.603C79.9717 208.232 79.1123 208.046 78.2773 208.046C77.6182 208.046 77.103 208.188 76.7319 208.471C76.3608 208.754 76.1753 209.147 76.1753 209.65C76.1753 210.021 76.2437 210.327 76.3804 210.566C76.5171 210.8 76.7466 211.018 77.0688 211.218C77.396 211.413 77.894 211.63 78.563 211.87C79.686 212.27 80.4575 212.7 80.8774 213.159C81.3022 213.618 81.5146 214.213 81.5146 214.946ZM86.9126 217.941C85.7261 217.941 84.7886 217.58 84.1001 216.857C83.4165 216.135 83.0747 215.131 83.0747 213.847C83.0747 212.553 83.3921 211.525 84.0269 210.764C84.6665 210.002 85.5234 209.621 86.5977 209.621C87.6035 209.621 88.3994 209.953 88.9854 210.617C89.5713 211.276 89.8643 212.148 89.8643 213.232V214.001H84.3345C84.3589 214.943 84.5957 215.659 85.0449 216.147C85.499 216.635 86.1362 216.879 86.9565 216.879C87.8208 216.879 88.6753 216.699 89.52 216.337V217.421C89.0903 217.607 88.6826 217.739 88.2969 217.817C87.916 217.9 87.4546 217.941 86.9126 217.941ZM86.583 210.639C85.9385 210.639 85.4233 210.849 85.0376 211.269C84.6567 211.689 84.4321 212.27 84.3638 213.012H88.5605C88.5605 212.246 88.3896 211.66 88.0479 211.254C87.7061 210.844 87.2178 210.639 86.583 210.639ZM96.8809 217.795L96.6392 216.652H96.5806C96.1802 217.155 95.7798 217.497 95.3794 217.678C94.9839 217.854 94.4883 217.941 93.8926 217.941C93.0967 217.941 92.4717 217.736 92.0176 217.326C91.5684 216.916 91.3438 216.333 91.3438 215.576C91.3438 213.955 92.6401 213.105 95.2329 213.027L96.5952 212.983V212.485C96.5952 211.855 96.4585 211.391 96.1851 211.093C95.9165 210.791 95.4844 210.639 94.8887 210.639C94.2197 210.639 93.4629 210.844 92.6182 211.254L92.2446 210.324C92.6401 210.109 93.0723 209.941 93.541 209.819C94.0146 209.697 94.4883 209.636 94.9619 209.636C95.9189 209.636 96.627 209.848 97.0859 210.273C97.5498 210.698 97.7817 211.379 97.7817 212.316V217.795H96.8809ZM94.1343 216.938C94.8911 216.938 95.4844 216.73 95.9141 216.315C96.3486 215.9 96.5659 215.319 96.5659 214.572V213.847L95.3501 213.898C94.3833 213.933 93.6851 214.084 93.2554 214.353C92.8306 214.616 92.6182 215.029 92.6182 215.59C92.6182 216.03 92.75 216.364 93.0137 216.594C93.2822 216.823 93.6558 216.938 94.1343 216.938ZM103.956 209.621C104.312 209.621 104.632 209.65 104.916 209.709L104.747 210.837C104.415 210.764 104.122 210.727 103.868 210.727C103.219 210.727 102.662 210.991 102.198 211.518C101.739 212.045 101.51 212.702 101.51 213.488V217.795H100.294V209.768H101.297L101.437 211.254H101.495C101.793 210.732 102.152 210.329 102.572 210.046C102.992 209.763 103.453 209.621 103.956 209.621ZM109.625 217.941C108.463 217.941 107.562 217.585 106.922 216.872C106.288 216.154 105.97 215.141 105.97 213.833C105.97 212.49 106.292 211.452 106.937 210.72C107.586 209.987 108.509 209.621 109.706 209.621C110.091 209.621 110.477 209.663 110.863 209.746C111.249 209.829 111.551 209.926 111.771 210.039L111.397 211.071C111.129 210.964 110.836 210.876 110.519 210.808C110.201 210.734 109.92 210.698 109.676 210.698C108.045 210.698 107.23 211.738 107.23 213.818C107.23 214.804 107.428 215.561 107.823 216.088C108.224 216.616 108.814 216.879 109.596 216.879C110.265 216.879 110.951 216.735 111.654 216.447V217.524C111.117 217.802 110.44 217.941 109.625 217.941ZM119.059 217.795V212.602C119.059 211.948 118.91 211.459 118.612 211.137C118.314 210.815 117.848 210.654 117.213 210.654C116.368 210.654 115.75 210.883 115.36 211.342C114.974 211.801 114.781 212.553 114.781 213.598V217.795H113.565V206.398H114.781V209.848C114.781 210.263 114.762 210.607 114.723 210.881H114.796C115.035 210.495 115.375 210.192 115.814 209.973C116.258 209.748 116.764 209.636 117.33 209.636C118.312 209.636 119.046 209.87 119.535 210.339C120.028 210.803 120.274 211.542 120.274 212.558V217.795H119.059Z" fill="#6D6D6D"/>
<path d="M40.7666 259.426C40.7666 261.14 40.332 262.488 39.4629 263.469C38.5986 264.451 37.395 264.941 35.8521 264.941C34.2749 264.941 33.0566 264.46 32.1973 263.499C31.3428 262.532 30.9155 261.169 30.9155 259.412C30.9155 257.668 31.3452 256.318 32.2046 255.361C33.064 254.399 34.2847 253.918 35.8667 253.918C37.4048 253.918 38.606 254.407 39.4702 255.383C40.3345 256.36 40.7666 257.708 40.7666 259.426ZM32.2339 259.426C32.2339 260.876 32.5415 261.978 33.1567 262.729C33.7769 263.477 34.6753 263.85 35.8521 263.85C37.0386 263.85 37.9346 263.477 38.54 262.729C39.1455 261.982 39.4482 260.881 39.4482 259.426C39.4482 257.986 39.1455 256.895 38.54 256.152C37.9395 255.405 37.0483 255.032 35.8667 255.032C34.6802 255.032 33.7769 255.408 33.1567 256.16C32.5415 256.907 32.2339 257.996 32.2339 259.426ZM48.4717 264.795V259.602C48.4717 258.948 48.3228 258.459 48.0249 258.137C47.7271 257.815 47.2607 257.654 46.626 257.654C45.7861 257.654 45.1709 257.881 44.7803 258.335C44.3896 258.789 44.1943 259.539 44.1943 260.583V264.795H42.9785V256.768H43.9673L44.165 257.866H44.2236C44.4727 257.471 44.8218 257.166 45.271 256.951C45.7202 256.731 46.2207 256.621 46.7725 256.621C47.7393 256.621 48.4668 256.855 48.9551 257.324C49.4434 257.788 49.6875 258.533 49.6875 259.558V264.795H48.4717ZM53.4082 264.795H52.1924V253.398H53.4082V264.795ZM54.7119 256.768H56.0156L57.7734 261.345C58.1592 262.39 58.3984 263.145 58.4912 263.608H58.5498C58.6133 263.359 58.7451 262.935 58.9453 262.334C59.1504 261.729 59.8145 259.873 60.9375 256.768H62.2412L58.7915 265.908C58.4497 266.812 58.0493 267.451 57.5903 267.827C57.1362 268.208 56.5771 268.398 55.9131 268.398C55.542 268.398 55.1758 268.357 54.8145 268.274V267.3C55.083 267.358 55.3833 267.388 55.7153 267.388C56.5503 267.388 57.146 266.919 57.5024 265.981L57.9492 264.839L54.7119 256.768ZM72.6196 262.605C72.6196 263.352 72.3413 263.928 71.7847 264.333C71.228 264.739 70.4468 264.941 69.4409 264.941C68.3765 264.941 67.5464 264.773 66.9507 264.436V263.308C67.3364 263.503 67.749 263.657 68.1885 263.77C68.6328 263.882 69.0601 263.938 69.4702 263.938C70.105 263.938 70.5933 263.838 70.9351 263.638C71.2769 263.433 71.4478 263.123 71.4478 262.708C71.4478 262.395 71.311 262.129 71.0376 261.909C70.769 261.685 70.2417 261.421 69.4556 261.118C68.7085 260.84 68.1763 260.598 67.8589 260.393C67.5464 260.183 67.312 259.946 67.1558 259.683C67.0044 259.419 66.9287 259.104 66.9287 258.738C66.9287 258.083 67.1948 257.568 67.7271 257.192C68.2593 256.812 68.9893 256.621 69.917 256.621C70.7812 256.621 71.626 256.797 72.4512 257.148L72.019 258.137C71.2134 257.805 70.4834 257.639 69.8291 257.639C69.2529 257.639 68.8184 257.729 68.5254 257.91C68.2324 258.091 68.0859 258.34 68.0859 258.657C68.0859 258.872 68.1396 259.055 68.2471 259.207C68.3594 259.358 68.5376 259.502 68.7817 259.639C69.0259 259.775 69.4946 259.973 70.188 260.232C71.1401 260.579 71.7822 260.928 72.1143 261.279C72.4512 261.631 72.6196 262.073 72.6196 262.605ZM80.0977 264.795V259.602C80.0977 258.948 79.9487 258.459 79.6509 258.137C79.353 257.815 78.8867 257.654 78.252 257.654C77.4072 257.654 76.7896 257.883 76.3989 258.342C76.0132 258.801 75.8203 259.553 75.8203 260.598V264.795H74.6045V253.398H75.8203V256.848C75.8203 257.263 75.8008 257.607 75.7617 257.881H75.835C76.0742 257.495 76.4136 257.192 76.853 256.973C77.2974 256.748 77.8027 256.636 78.3691 256.636C79.3506 256.636 80.0854 256.87 80.5737 257.339C81.0669 257.803 81.3135 258.542 81.3135 259.558V264.795H80.0977ZM90.7471 260.774C90.7471 262.083 90.4175 263.105 89.7583 263.843C89.0991 264.575 88.1885 264.941 87.0264 264.941C86.3086 264.941 85.6714 264.773 85.1147 264.436C84.5581 264.099 84.1284 263.616 83.8257 262.986C83.5229 262.356 83.3716 261.619 83.3716 260.774C83.3716 259.465 83.6987 258.447 84.353 257.72C85.0073 256.987 85.9155 256.621 87.0776 256.621C88.2007 256.621 89.0918 256.995 89.751 257.742C90.415 258.489 90.7471 259.5 90.7471 260.774ZM84.6313 260.774C84.6313 261.799 84.8364 262.581 85.2466 263.118C85.6567 263.655 86.2598 263.923 87.0557 263.923C87.8516 263.923 88.4546 263.657 88.8647 263.125C89.2798 262.588 89.4873 261.804 89.4873 260.774C89.4873 259.753 89.2798 258.979 88.8647 258.452C88.4546 257.92 87.8467 257.654 87.041 257.654C86.2451 257.654 85.6445 257.915 85.2393 258.438C84.834 258.96 84.6313 259.739 84.6313 260.774ZM99.4409 264.795L97.9688 260.085C97.876 259.797 97.7026 259.143 97.4487 258.123H97.3901C97.1948 258.977 97.0239 259.636 96.8774 260.1L95.3613 264.795H93.9551L91.7651 256.768H93.0396C93.5571 258.784 93.9502 260.32 94.2188 261.375C94.4922 262.429 94.6484 263.14 94.6875 263.506H94.7461C94.7998 263.228 94.8853 262.869 95.0024 262.429C95.1245 261.985 95.2295 261.633 95.3174 261.375L96.7896 256.768H98.1079L99.5435 261.375C99.8169 262.214 100.002 262.92 100.1 263.491H100.159C100.178 263.315 100.229 263.044 100.312 262.678C100.4 262.312 100.911 260.342 101.843 256.768H103.103L100.884 264.795H99.4409ZM112.119 256.621C112.476 256.621 112.795 256.65 113.079 256.709L112.91 257.837C112.578 257.764 112.285 257.727 112.031 257.727C111.382 257.727 110.825 257.991 110.361 258.518C109.902 259.045 109.673 259.702 109.673 260.488V264.795H108.457V256.768H109.46L109.6 258.254H109.658C109.956 257.732 110.315 257.329 110.735 257.046C111.155 256.763 111.616 256.621 112.119 256.621ZM121.509 260.774C121.509 262.083 121.179 263.105 120.52 263.843C119.861 264.575 118.95 264.941 117.788 264.941C117.07 264.941 116.433 264.773 115.876 264.436C115.32 264.099 114.89 263.616 114.587 262.986C114.285 262.356 114.133 261.619 114.133 260.774C114.133 259.465 114.46 258.447 115.115 257.72C115.769 256.987 116.677 256.621 117.839 256.621C118.962 256.621 119.854 256.995 120.513 257.742C121.177 258.489 121.509 259.5 121.509 260.774ZM115.393 260.774C115.393 261.799 115.598 262.581 116.008 263.118C116.418 263.655 117.021 263.923 117.817 263.923C118.613 263.923 119.216 263.657 119.626 263.125C120.042 262.588 120.249 261.804 120.249 260.774C120.249 259.753 120.042 258.979 119.626 258.452C119.216 257.92 118.608 257.654 117.803 257.654C117.007 257.654 116.406 257.915 116.001 258.438C115.596 258.96 115.393 259.739 115.393 260.774ZM130.203 264.795L128.73 260.085C128.638 259.797 128.464 259.143 128.21 258.123H128.152C127.957 258.977 127.786 259.636 127.639 260.1L126.123 264.795H124.717L122.527 256.768H123.801C124.319 258.784 124.712 260.32 124.98 261.375C125.254 262.429 125.41 263.14 125.449 263.506H125.508C125.562 263.228 125.647 262.869 125.764 262.429C125.886 261.985 125.991 261.633 126.079 261.375L127.551 256.768H128.87L130.305 261.375C130.579 262.214 130.764 262.92 130.862 263.491H130.92C130.94 263.315 130.991 263.044 131.074 262.678C131.162 262.312 131.672 260.342 132.605 256.768H133.865L131.646 264.795H130.203ZM140.5 262.605C140.5 263.352 140.222 263.928 139.666 264.333C139.109 264.739 138.328 264.941 137.322 264.941C136.257 264.941 135.427 264.773 134.832 264.436V263.308C135.217 263.503 135.63 263.657 136.069 263.77C136.514 263.882 136.941 263.938 137.351 263.938C137.986 263.938 138.474 263.838 138.816 263.638C139.158 263.433 139.329 263.123 139.329 262.708C139.329 262.395 139.192 262.129 138.918 261.909C138.65 261.685 138.123 261.421 137.336 261.118C136.589 260.84 136.057 260.598 135.74 260.393C135.427 260.183 135.193 259.946 135.037 259.683C134.885 259.419 134.81 259.104 134.81 258.738C134.81 258.083 135.076 257.568 135.608 257.192C136.14 256.812 136.87 256.621 137.798 256.621C138.662 256.621 139.507 256.797 140.332 257.148L139.9 258.137C139.094 257.805 138.364 257.639 137.71 257.639C137.134 257.639 136.699 257.729 136.406 257.91C136.113 258.091 135.967 258.34 135.967 258.657C135.967 258.872 136.021 259.055 136.128 259.207C136.24 259.358 136.418 259.502 136.663 259.639C136.907 259.775 137.375 259.973 138.069 260.232C139.021 260.579 139.663 260.928 139.995 261.279C140.332 261.631 140.5 262.073 140.5 262.605ZM149.59 264.941C148.428 264.941 147.527 264.585 146.887 263.872C146.252 263.154 145.935 262.141 145.935 260.833C145.935 259.49 146.257 258.452 146.902 257.72C147.551 256.987 148.474 256.621 149.67 256.621C150.056 256.621 150.442 256.663 150.828 256.746C151.213 256.829 151.516 256.926 151.736 257.039L151.362 258.071C151.094 257.964 150.801 257.876 150.483 257.808C150.166 257.734 149.885 257.698 149.641 257.698C148.01 257.698 147.195 258.738 147.195 260.818C147.195 261.804 147.393 262.561 147.788 263.088C148.188 263.616 148.779 263.879 149.561 263.879C150.229 263.879 150.916 263.735 151.619 263.447V264.524C151.082 264.802 150.405 264.941 149.59 264.941ZM160.459 260.774C160.459 262.083 160.129 263.105 159.47 263.843C158.811 264.575 157.9 264.941 156.738 264.941C156.021 264.941 155.383 264.773 154.827 264.436C154.27 264.099 153.84 263.616 153.538 262.986C153.235 262.356 153.083 261.619 153.083 260.774C153.083 259.465 153.411 258.447 154.065 257.72C154.719 256.987 155.627 256.621 156.79 256.621C157.913 256.621 158.804 256.995 159.463 257.742C160.127 258.489 160.459 259.5 160.459 260.774ZM154.343 260.774C154.343 261.799 154.548 262.581 154.958 263.118C155.369 263.655 155.972 263.923 156.768 263.923C157.563 263.923 158.167 263.657 158.577 263.125C158.992 262.588 159.199 261.804 159.199 260.774C159.199 259.753 158.992 258.979 158.577 258.452C158.167 257.92 157.559 257.654 156.753 257.654C155.957 257.654 155.356 257.915 154.951 258.438C154.546 258.96 154.343 259.739 154.343 260.774ZM168.091 264.795V259.602C168.091 258.948 167.942 258.459 167.644 258.137C167.346 257.815 166.88 257.654 166.245 257.654C165.405 257.654 164.79 257.881 164.399 258.335C164.009 258.789 163.813 259.539 163.813 260.583V264.795H162.598V256.768H163.586L163.784 257.866H163.843C164.092 257.471 164.441 257.166 164.89 256.951C165.339 256.731 165.84 256.621 166.392 256.621C167.358 256.621 168.086 256.855 168.574 257.324C169.062 257.788 169.307 258.533 169.307 259.558V264.795H168.091ZM174.404 263.938C174.619 263.938 174.827 263.923 175.027 263.894C175.227 263.86 175.386 263.826 175.503 263.792V264.722C175.371 264.785 175.176 264.836 174.917 264.875C174.663 264.919 174.434 264.941 174.229 264.941C172.676 264.941 171.899 264.124 171.899 262.488V257.712H170.75V257.126L171.899 256.621L172.412 254.907H173.115V256.768H175.444V257.712H173.115V262.437C173.115 262.92 173.23 263.291 173.459 263.55C173.689 263.809 174.004 263.938 174.404 263.938ZM182.051 264.795L181.809 263.652H181.75C181.35 264.155 180.95 264.497 180.549 264.678C180.154 264.854 179.658 264.941 179.062 264.941C178.267 264.941 177.642 264.736 177.188 264.326C176.738 263.916 176.514 263.333 176.514 262.576C176.514 260.955 177.81 260.105 180.403 260.027L181.765 259.983V259.485C181.765 258.855 181.628 258.391 181.355 258.093C181.086 257.791 180.654 257.639 180.059 257.639C179.39 257.639 178.633 257.844 177.788 258.254L177.415 257.324C177.81 257.109 178.242 256.941 178.711 256.819C179.185 256.697 179.658 256.636 180.132 256.636C181.089 256.636 181.797 256.848 182.256 257.273C182.72 257.698 182.952 258.379 182.952 259.316V264.795H182.051ZM179.304 263.938C180.061 263.938 180.654 263.73 181.084 263.315C181.519 262.9 181.736 262.319 181.736 261.572V260.847L180.52 260.898C179.553 260.933 178.855 261.084 178.425 261.353C178 261.616 177.788 262.029 177.788 262.59C177.788 263.03 177.92 263.364 178.184 263.594C178.452 263.823 178.826 263.938 179.304 263.938ZM186.68 264.795H185.464V256.768H186.68V264.795ZM185.361 254.592C185.361 254.314 185.43 254.111 185.566 253.984C185.703 253.853 185.874 253.787 186.079 253.787C186.274 253.787 186.443 253.853 186.584 253.984C186.726 254.116 186.797 254.319 186.797 254.592C186.797 254.866 186.726 255.071 186.584 255.208C186.443 255.339 186.274 255.405 186.079 255.405C185.874 255.405 185.703 255.339 185.566 255.208C185.43 255.071 185.361 254.866 185.361 254.592ZM194.751 264.795V259.602C194.751 258.948 194.602 258.459 194.304 258.137C194.006 257.815 193.54 257.654 192.905 257.654C192.065 257.654 191.45 257.881 191.06 258.335C190.669 258.789 190.474 259.539 190.474 260.583V264.795H189.258V256.768H190.247L190.444 257.866H190.503C190.752 257.471 191.101 257.166 191.55 256.951C192 256.731 192.5 256.621 193.052 256.621C194.019 256.621 194.746 256.855 195.234 257.324C195.723 257.788 195.967 258.533 195.967 259.558V264.795H194.751ZM199.688 264.795H198.472V256.768H199.688V264.795ZM198.369 254.592C198.369 254.314 198.438 254.111 198.574 253.984C198.711 253.853 198.882 253.787 199.087 253.787C199.282 253.787 199.451 253.853 199.592 253.984C199.734 254.116 199.805 254.319 199.805 254.592C199.805 254.866 199.734 255.071 199.592 255.208C199.451 255.339 199.282 255.405 199.087 255.405C198.882 255.405 198.711 255.339 198.574 255.208C198.438 255.071 198.369 254.866 198.369 254.592ZM207.759 264.795V259.602C207.759 258.948 207.61 258.459 207.312 258.137C207.014 257.815 206.548 257.654 205.913 257.654C205.073 257.654 204.458 257.881 204.067 258.335C203.677 258.789 203.481 259.539 203.481 260.583V264.795H202.266V256.768H203.254L203.452 257.866H203.511C203.76 257.471 204.109 257.166 204.558 256.951C205.007 256.731 205.508 256.621 206.06 256.621C207.026 256.621 207.754 256.855 208.242 257.324C208.73 257.788 208.975 258.533 208.975 259.558V264.795H207.759ZM218.049 256.768V257.537L216.562 257.712C216.699 257.883 216.821 258.108 216.929 258.386C217.036 258.66 217.09 258.97 217.09 259.316C217.09 260.103 216.821 260.73 216.284 261.199C215.747 261.667 215.01 261.902 214.072 261.902C213.833 261.902 213.608 261.882 213.398 261.843C212.881 262.117 212.622 262.461 212.622 262.876C212.622 263.096 212.712 263.259 212.893 263.367C213.074 263.469 213.384 263.521 213.823 263.521H215.244C216.113 263.521 216.78 263.704 217.244 264.07C217.712 264.436 217.947 264.968 217.947 265.667C217.947 266.555 217.59 267.231 216.877 267.695C216.165 268.164 215.125 268.398 213.757 268.398C212.708 268.398 211.897 268.203 211.326 267.812C210.759 267.422 210.476 266.87 210.476 266.157C210.476 265.669 210.632 265.247 210.945 264.89C211.257 264.534 211.697 264.292 212.263 264.165C212.058 264.072 211.885 263.928 211.743 263.733C211.606 263.538 211.538 263.311 211.538 263.052C211.538 262.759 211.616 262.502 211.772 262.283C211.929 262.063 212.175 261.851 212.512 261.646C212.097 261.475 211.758 261.184 211.494 260.774C211.235 260.364 211.106 259.895 211.106 259.368C211.106 258.489 211.37 257.812 211.897 257.339C212.424 256.86 213.171 256.621 214.138 256.621C214.558 256.621 214.937 256.67 215.273 256.768H218.049ZM211.648 266.143C211.648 266.577 211.831 266.907 212.197 267.131C212.563 267.356 213.088 267.468 213.772 267.468C214.792 267.468 215.547 267.314 216.035 267.007C216.528 266.704 216.775 266.292 216.775 265.769C216.775 265.334 216.641 265.032 216.372 264.861C216.104 264.695 215.598 264.612 214.856 264.612H213.398C212.847 264.612 212.417 264.744 212.109 265.007C211.802 265.271 211.648 265.649 211.648 266.143ZM212.307 259.338C212.307 259.9 212.466 260.325 212.783 260.613C213.101 260.901 213.542 261.045 214.109 261.045C215.295 261.045 215.889 260.469 215.889 259.316C215.889 258.11 215.288 257.507 214.087 257.507C213.516 257.507 213.076 257.661 212.769 257.969C212.461 258.276 212.307 258.733 212.307 259.338ZM219.521 264.019C219.521 263.691 219.595 263.445 219.741 263.279C219.893 263.108 220.107 263.022 220.386 263.022C220.669 263.022 220.889 263.108 221.045 263.279C221.206 263.445 221.287 263.691 221.287 264.019C221.287 264.336 221.206 264.58 221.045 264.751C220.884 264.922 220.664 265.007 220.386 265.007C220.137 265.007 219.929 264.932 219.763 264.78C219.602 264.624 219.521 264.37 219.521 264.019ZM219.521 257.551C219.521 256.892 219.81 256.562 220.386 256.562C220.986 256.562 221.287 256.892 221.287 257.551C221.287 257.869 221.206 258.113 221.045 258.284C220.884 258.455 220.664 258.54 220.386 258.54C220.137 258.54 219.929 258.464 219.763 258.313C219.602 258.157 219.521 257.903 219.521 257.551Z" fill="#1F1F1F"/>
<path fill-rule="evenodd" clip-rule="evenodd" d="M48 293.795H36C34.8954 293.795 34 294.69 34 295.795V307.795C34 308.899 34.8954 309.795 36 309.795H48C49.1046 309.795 50 308.899 50 307.795V295.795C50 294.69 49.1046 293.795 48 293.795ZM36 292.795C34.3431 292.795 33 294.138 33 295.795V307.795C33 309.452 34.3431 310.795 36 310.795H48C49.6569 310.795 51 309.452 51 307.795V295.795C51 294.138 49.6569 292.795 48 292.795H36Z" fill="#1F1F1F"/>
<path d="M71.2969 308.795L69.7861 304.935H64.9219L63.4277 308.795H62L66.7979 296.609H67.9849L72.7578 308.795H71.2969ZM69.3462 303.665L67.9351 299.905C67.7524 299.429 67.5643 298.845 67.3706 298.153C67.2489 298.685 67.0745 299.268 66.8477 299.905L65.4199 303.665H69.3462ZM78.4521 308.961C77.86 308.961 77.3177 308.853 76.8252 308.637C76.3382 308.416 75.9287 308.078 75.5967 307.625H75.4971C75.5635 308.156 75.5967 308.659 75.5967 309.135V312.879H74.2188V299.697H75.3394L75.5303 300.942H75.5967C75.9508 300.444 76.3631 300.085 76.8335 299.863C77.3039 299.642 77.8434 299.531 78.4521 299.531C79.6585 299.531 80.5882 299.944 81.2412 300.768C81.8997 301.593 82.229 302.749 82.229 304.238C82.229 305.732 81.8942 306.894 81.2246 307.724C80.5605 308.549 79.6364 308.961 78.4521 308.961ZM78.2529 300.702C77.3232 300.702 76.6509 300.959 76.2358 301.474C75.8208 301.988 75.6077 302.807 75.5967 303.931V304.238C75.5967 305.516 75.8097 306.432 76.2358 306.985C76.6619 307.533 77.3454 307.807 78.2861 307.807C79.0719 307.807 79.6862 307.489 80.1289 306.853C80.5771 306.216 80.8013 305.339 80.8013 304.221C80.8013 303.087 80.5771 302.218 80.1289 301.615C79.6862 301.006 79.0609 300.702 78.2529 300.702ZM88.8779 308.961C88.2858 308.961 87.7435 308.853 87.251 308.637C86.764 308.416 86.3545 308.078 86.0225 307.625H85.9229C85.9893 308.156 86.0225 308.659 86.0225 309.135V312.879H84.6445V299.697H85.7651L85.9561 300.942H86.0225C86.3766 300.444 86.7889 300.085 87.2593 299.863C87.7297 299.642 88.2692 299.531 88.8779 299.531C90.0843 299.531 91.014 299.944 91.667 300.768C92.3255 301.593 92.6548 302.749 92.6548 304.238C92.6548 305.732 92.32 306.894 91.6504 307.724C90.9863 308.549 90.0622 308.961 88.8779 308.961ZM88.6787 300.702C87.749 300.702 87.0767 300.959 86.6616 301.474C86.2466 301.988 86.0335 302.807 86.0225 303.931V304.238C86.0225 305.516 86.2355 306.432 86.6616 306.985C87.0877 307.533 87.7712 307.807 88.7119 307.807C89.4977 307.807 90.112 307.489 90.5547 306.853C91.0029 306.216 91.2271 305.339 91.2271 304.221C91.2271 303.087 91.0029 302.218 90.5547 301.615C90.112 301.006 89.4867 300.702 88.6787 300.702ZM96.4482 308.795H95.0703V295.879H96.4482V308.795ZM100.748 308.795H99.3701V299.697H100.748V308.795ZM99.2539 297.232C99.2539 296.917 99.3314 296.687 99.4863 296.543C99.6413 296.394 99.835 296.319 100.067 296.319C100.289 296.319 100.48 296.394 100.64 296.543C100.801 296.692 100.881 296.922 100.881 297.232C100.881 297.542 100.801 297.774 100.64 297.929C100.48 298.079 100.289 298.153 100.067 298.153C99.835 298.153 99.6413 298.079 99.4863 297.929C99.3314 297.774 99.2539 297.542 99.2539 297.232ZM107.306 308.961C105.989 308.961 104.968 308.557 104.243 307.749C103.523 306.936 103.164 305.787 103.164 304.304C103.164 302.782 103.529 301.606 104.259 300.776C104.995 299.946 106.041 299.531 107.397 299.531C107.834 299.531 108.271 299.578 108.708 299.672C109.146 299.766 109.489 299.877 109.738 300.004L109.314 301.175C109.01 301.053 108.678 300.953 108.318 300.876C107.959 300.793 107.64 300.751 107.364 300.751C105.515 300.751 104.591 301.93 104.591 304.288C104.591 305.405 104.815 306.263 105.264 306.861C105.717 307.458 106.387 307.757 107.272 307.757C108.031 307.757 108.808 307.594 109.605 307.268V308.488C108.996 308.803 108.23 308.961 107.306 308.961ZM117.366 308.795L117.092 307.5H117.026C116.572 308.07 116.118 308.457 115.665 308.662C115.216 308.861 114.655 308.961 113.979 308.961C113.077 308.961 112.369 308.729 111.854 308.264C111.345 307.799 111.091 307.138 111.091 306.28C111.091 304.443 112.56 303.48 115.499 303.391L117.042 303.341V302.777C117.042 302.063 116.888 301.537 116.578 301.2C116.273 300.857 115.784 300.685 115.108 300.685C114.35 300.685 113.493 300.917 112.535 301.382L112.112 300.328C112.56 300.085 113.05 299.894 113.581 299.755C114.118 299.617 114.655 299.548 115.191 299.548C116.276 299.548 117.078 299.789 117.599 300.27C118.124 300.751 118.387 301.523 118.387 302.586V308.795H117.366ZM114.253 307.824C115.111 307.824 115.784 307.589 116.271 307.118C116.763 306.648 117.009 305.989 117.009 305.143V304.321L115.631 304.379C114.536 304.418 113.744 304.589 113.257 304.894C112.776 305.192 112.535 305.66 112.535 306.296C112.535 306.794 112.685 307.174 112.983 307.434C113.288 307.694 113.711 307.824 114.253 307.824ZM124.173 307.824C124.416 307.824 124.652 307.807 124.878 307.774C125.105 307.735 125.285 307.696 125.418 307.658V308.712C125.269 308.784 125.047 308.842 124.754 308.886C124.466 308.936 124.206 308.961 123.974 308.961C122.214 308.961 121.334 308.034 121.334 306.18V300.768H120.031V300.104L121.334 299.531L121.915 297.589H122.712V299.697H125.352V300.768H122.712V306.122C122.712 306.67 122.842 307.09 123.102 307.384C123.362 307.677 123.719 307.824 124.173 307.824ZM128.622 308.795H127.244V299.697H128.622V308.795ZM127.128 297.232C127.128 296.917 127.205 296.687 127.36 296.543C127.515 296.394 127.709 296.319 127.941 296.319C128.163 296.319 128.354 296.394 128.514 296.543C128.675 296.692 128.755 296.922 128.755 297.232C128.755 297.542 128.675 297.774 128.514 297.929C128.354 298.079 128.163 298.153 127.941 298.153C127.709 298.153 127.515 298.079 127.36 297.929C127.205 297.774 127.128 297.542 127.128 297.232ZM139.396 304.238C139.396 305.721 139.023 306.88 138.276 307.716C137.529 308.546 136.497 308.961 135.18 308.961C134.366 308.961 133.644 308.77 133.013 308.388C132.382 308.006 131.895 307.458 131.552 306.745C131.209 306.031 131.038 305.195 131.038 304.238C131.038 302.755 131.408 301.601 132.15 300.776C132.891 299.946 133.921 299.531 135.238 299.531C136.511 299.531 137.521 299.955 138.268 300.801C139.02 301.648 139.396 302.793 139.396 304.238ZM132.465 304.238C132.465 305.4 132.698 306.285 133.163 306.894C133.627 307.503 134.311 307.807 135.213 307.807C136.115 307.807 136.798 307.506 137.263 306.902C137.734 306.294 137.969 305.405 137.969 304.238C137.969 303.081 137.734 302.204 137.263 301.606C136.798 301.003 136.109 300.702 135.196 300.702C134.294 300.702 133.614 300.998 133.154 301.59C132.695 302.182 132.465 303.065 132.465 304.238ZM148.046 308.795V302.91C148.046 302.168 147.877 301.615 147.54 301.25C147.202 300.884 146.674 300.702 145.954 300.702C145.002 300.702 144.305 300.959 143.862 301.474C143.42 301.988 143.198 302.838 143.198 304.022V308.795H141.82V299.697H142.941L143.165 300.942H143.231C143.514 300.494 143.909 300.148 144.418 299.905C144.928 299.656 145.495 299.531 146.12 299.531C147.216 299.531 148.04 299.797 148.594 300.328C149.147 300.854 149.424 301.698 149.424 302.86V308.795H148.046Z" fill="#1F1F1F"/>
<path fill-rule="evenodd" clip-rule="evenodd" d="M48 337.795H36C34.8954 337.795 34 338.69 34 339.795V351.795C34 352.899 34.8954 353.795 36 353.795H48C49.1046 353.795 50 352.899 50 351.795V339.795C50 338.69 49.1046 337.795 48 337.795ZM36 336.795C34.3431 336.795 33 338.138 33 339.795V351.795C33 353.452 34.3431 354.795 36 354.795H48C49.6569 354.795 51 353.452 51 351.795V339.795C51 338.138 49.6569 336.795 48 336.795H36Z" fill="#1F1F1F"/>
<path d="M71.2969 352.795L69.7861 348.935H64.9219L63.4277 352.795H62L66.7979 340.609H67.9849L72.7578 352.795H71.2969ZM69.3462 347.665L67.9351 343.905C67.7524 343.429 67.5643 342.845 67.3706 342.153C67.2489 342.685 67.0745 343.268 66.8477 343.905L65.4199 347.665H69.3462ZM78.4521 352.961C77.86 352.961 77.3177 352.853 76.8252 352.637C76.3382 352.416 75.9287 352.078 75.5967 351.625H75.4971C75.5635 352.156 75.5967 352.659 75.5967 353.135V356.879H74.2188V343.697H75.3394L75.5303 344.942H75.5967C75.9508 344.444 76.3631 344.085 76.8335 343.863C77.3039 343.642 77.8434 343.531 78.4521 343.531C79.6585 343.531 80.5882 343.944 81.2412 344.768C81.8997 345.593 82.229 346.749 82.229 348.238C82.229 349.732 81.8942 350.894 81.2246 351.724C80.5605 352.549 79.6364 352.961 78.4521 352.961ZM78.2529 344.702C77.3232 344.702 76.6509 344.959 76.2358 345.474C75.8208 345.988 75.6077 346.807 75.5967 347.931V348.238C75.5967 349.516 75.8097 350.432 76.2358 350.985C76.6619 351.533 77.3454 351.807 78.2861 351.807C79.0719 351.807 79.6862 351.489 80.1289 350.853C80.5771 350.216 80.8013 349.339 80.8013 348.221C80.8013 347.087 80.5771 346.218 80.1289 345.615C79.6862 345.006 79.0609 344.702 78.2529 344.702ZM88.8779 352.961C88.2858 352.961 87.7435 352.853 87.251 352.637C86.764 352.416 86.3545 352.078 86.0225 351.625H85.9229C85.9893 352.156 86.0225 352.659 86.0225 353.135V356.879H84.6445V343.697H85.7651L85.9561 344.942H86.0225C86.3766 344.444 86.7889 344.085 87.2593 343.863C87.7297 343.642 88.2692 343.531 88.8779 343.531C90.0843 343.531 91.014 343.944 91.667 344.768C92.3255 345.593 92.6548 346.749 92.6548 348.238C92.6548 349.732 92.32 350.894 91.6504 351.724C90.9863 352.549 90.0622 352.961 88.8779 352.961ZM88.6787 344.702C87.749 344.702 87.0767 344.959 86.6616 345.474C86.2466 345.988 86.0335 346.807 86.0225 347.931V348.238C86.0225 349.516 86.2355 350.432 86.6616 350.985C87.0877 351.533 87.7712 351.807 88.7119 351.807C89.4977 351.807 90.112 351.489 90.5547 350.853C91.0029 350.216 91.2271 349.339 91.2271 348.221C91.2271 347.087 91.0029 346.218 90.5547 345.615C90.112 345.006 89.4867 344.702 88.6787 344.702ZM99.2207 343.531C99.6247 343.531 99.9871 343.564 100.308 343.631L100.117 344.909C99.7409 344.826 99.4089 344.785 99.1211 344.785C98.3851 344.785 97.7542 345.083 97.2285 345.681C96.7083 346.279 96.4482 347.023 96.4482 347.914V352.795H95.0703V343.697H96.2075L96.3652 345.382H96.4316C96.7692 344.79 97.1759 344.334 97.6519 344.013C98.1278 343.692 98.6507 343.531 99.2207 343.531ZM107.604 352.795L107.331 351.5H107.264C106.81 352.07 106.357 352.457 105.903 352.662C105.455 352.861 104.893 352.961 104.218 352.961C103.316 352.961 102.607 352.729 102.093 352.264C101.584 351.799 101.329 351.138 101.329 350.28C101.329 348.443 102.798 347.48 105.737 347.391L107.281 347.341V346.777C107.281 346.063 107.126 345.537 106.816 345.2C106.512 344.857 106.022 344.685 105.347 344.685C104.589 344.685 103.731 344.917 102.773 345.382L102.35 344.328C102.798 344.085 103.288 343.894 103.819 343.755C104.356 343.617 104.893 343.548 105.43 343.548C106.514 343.548 107.317 343.789 107.837 344.27C108.363 344.751 108.625 345.523 108.625 346.586V352.795H107.604ZM104.492 351.824C105.349 351.824 106.022 351.589 106.509 351.118C107.001 350.648 107.248 349.989 107.248 349.143V348.321L105.87 348.379C104.774 348.418 103.983 348.589 103.496 348.894C103.014 349.192 102.773 349.66 102.773 350.296C102.773 350.794 102.923 351.174 103.222 351.434C103.526 351.694 103.949 351.824 104.492 351.824ZM112.851 352.795H111.473V343.697H112.851V352.795ZM111.356 341.232C111.356 340.917 111.434 340.687 111.589 340.543C111.744 340.394 111.938 340.319 112.17 340.319C112.391 340.319 112.582 340.394 112.743 340.543C112.903 340.692 112.983 340.922 112.983 341.232C112.983 341.542 112.903 341.774 112.743 341.929C112.582 342.079 112.391 342.153 112.17 342.153C111.938 342.153 111.744 342.079 111.589 341.929C111.434 341.774 111.356 341.542 111.356 341.232ZM121.641 350.313C121.641 351.16 121.326 351.813 120.695 352.272C120.064 352.731 119.179 352.961 118.039 352.961C116.832 352.961 115.891 352.77 115.216 352.388V351.11C115.653 351.331 116.121 351.506 116.619 351.633C117.123 351.76 117.607 351.824 118.072 351.824C118.791 351.824 119.345 351.71 119.732 351.483C120.119 351.251 120.313 350.9 120.313 350.429C120.313 350.075 120.158 349.773 119.848 349.524C119.544 349.27 118.946 348.971 118.055 348.628C117.208 348.312 116.605 348.039 116.246 347.806C115.891 347.568 115.626 347.3 115.449 347.001C115.277 346.702 115.191 346.345 115.191 345.93C115.191 345.189 115.493 344.605 116.096 344.179C116.699 343.747 117.527 343.531 118.578 343.531C119.558 343.531 120.515 343.73 121.45 344.129L120.96 345.25C120.047 344.873 119.22 344.685 118.479 344.685C117.826 344.685 117.333 344.787 117.001 344.992C116.669 345.197 116.503 345.479 116.503 345.839C116.503 346.082 116.564 346.29 116.686 346.461C116.813 346.633 117.015 346.796 117.292 346.951C117.568 347.106 118.099 347.33 118.885 347.624C119.964 348.016 120.692 348.412 121.068 348.811C121.45 349.209 121.641 349.71 121.641 350.313ZM129.485 352.795L129.211 351.5H129.145C128.691 352.07 128.237 352.457 127.784 352.662C127.335 352.861 126.774 352.961 126.099 352.961C125.197 352.961 124.488 352.729 123.974 352.264C123.465 351.799 123.21 351.138 123.21 350.28C123.21 348.443 124.679 347.48 127.618 347.391L129.162 347.341V346.777C129.162 346.063 129.007 345.537 128.697 345.2C128.392 344.857 127.903 344.685 127.228 344.685C126.469 344.685 125.612 344.917 124.654 345.382L124.231 344.328C124.679 344.085 125.169 343.894 125.7 343.755C126.237 343.617 126.774 343.548 127.311 343.548C128.395 343.548 129.198 343.789 129.718 344.27C130.243 344.751 130.506 345.523 130.506 346.586V352.795H129.485ZM126.373 351.824C127.23 351.824 127.903 351.589 128.39 351.118C128.882 350.648 129.128 349.989 129.128 349.143V348.321L127.75 348.379C126.655 348.418 125.863 348.589 125.376 348.894C124.895 349.192 124.654 349.66 124.654 350.296C124.654 350.794 124.804 351.174 125.103 351.434C125.407 351.694 125.83 351.824 126.373 351.824ZM134.731 352.795H133.354V339.879H134.731V352.795ZM152.811 346.71C152.811 348.653 152.318 350.18 151.333 351.292C150.354 352.405 148.989 352.961 147.241 352.961C145.453 352.961 144.073 352.416 143.099 351.326C142.13 350.23 141.646 348.686 141.646 346.694C141.646 344.718 142.133 343.188 143.107 342.104C144.081 341.013 145.464 340.468 147.257 340.468C149 340.468 150.362 341.022 151.341 342.128C152.321 343.235 152.811 344.763 152.811 346.71ZM143.14 346.71C143.14 348.354 143.489 349.602 144.186 350.454C144.889 351.301 145.907 351.724 147.241 351.724C148.585 351.724 149.601 351.301 150.287 350.454C150.973 349.607 151.316 348.36 151.316 346.71C151.316 345.078 150.973 343.841 150.287 343C149.606 342.153 148.597 341.73 147.257 341.73C145.913 341.73 144.889 342.156 144.186 343.008C143.489 343.855 143.14 345.089 143.14 346.71ZM159.468 343.531C159.872 343.531 160.234 343.564 160.555 343.631L160.364 344.909C159.988 344.826 159.656 344.785 159.368 344.785C158.632 344.785 158.001 345.083 157.476 345.681C156.955 346.279 156.695 347.023 156.695 347.914V352.795H155.317V343.697H156.455L156.612 345.382H156.679C157.016 344.79 157.423 344.334 157.899 344.013C158.375 343.692 158.898 343.531 159.468 343.531ZM168.449 351.575H168.375C167.738 352.499 166.786 352.961 165.519 352.961C164.329 352.961 163.402 352.554 162.738 351.741C162.08 350.927 161.75 349.771 161.75 348.271C161.75 346.771 162.083 345.606 162.747 344.776C163.411 343.946 164.335 343.531 165.519 343.531C166.753 343.531 167.699 343.979 168.358 344.876H168.466L168.408 344.22L168.375 343.581V339.879H169.752V352.795H168.632L168.449 351.575ZM165.693 351.807C166.634 351.807 167.315 351.553 167.735 351.043C168.161 350.529 168.375 349.701 168.375 348.562V348.271C168.375 346.982 168.159 346.063 167.727 345.515C167.301 344.962 166.618 344.685 165.677 344.685C164.869 344.685 164.249 345 163.817 345.631C163.391 346.257 163.178 347.142 163.178 348.288C163.178 349.45 163.391 350.327 163.817 350.919C164.243 351.511 164.869 351.807 165.693 351.807ZM176.526 352.961C175.181 352.961 174.119 352.551 173.338 351.732C172.564 350.913 172.176 349.776 172.176 348.321C172.176 346.854 172.536 345.689 173.255 344.826C173.98 343.963 174.951 343.531 176.169 343.531C177.309 343.531 178.211 343.908 178.875 344.66C179.539 345.407 179.871 346.395 179.871 347.624V348.495H173.604C173.632 349.563 173.9 350.374 174.409 350.927C174.924 351.481 175.646 351.757 176.576 351.757C177.555 351.757 178.524 351.553 179.481 351.143V352.372C178.994 352.582 178.532 352.731 178.095 352.82C177.663 352.914 177.14 352.961 176.526 352.961ZM176.152 344.685C175.422 344.685 174.838 344.923 174.401 345.399C173.969 345.875 173.715 346.533 173.637 347.375H178.394C178.394 346.506 178.2 345.842 177.812 345.382C177.425 344.917 176.872 344.685 176.152 344.685ZM186.379 343.531C186.783 343.531 187.145 343.564 187.466 343.631L187.275 344.909C186.899 344.826 186.567 344.785 186.279 344.785C185.543 344.785 184.912 345.083 184.387 345.681C183.867 346.279 183.606 347.023 183.606 347.914V352.795H182.229V343.697H183.366L183.523 345.382H183.59C183.927 344.79 184.334 344.334 184.81 344.013C185.286 343.692 185.809 343.531 186.379 343.531Z" fill="#1F1F1F"/>
<path fill-rule="evenodd" clip-rule="evenodd" d="M48 381.795H36C34.8954 381.795 34 382.69 34 383.795V395.795C34 396.899 34.8954 397.795 36 397.795H48C49.1046 397.795 50 396.899 50 395.795V383.795C50 382.69 49.1046 381.795 48 381.795ZM36 380.795C34.3431 380.795 33 382.138 33 383.795V395.795C33 397.452 34.3431 398.795 36 398.795H48C49.6569 398.795 51 397.452 51 395.795V383.795C51 382.138 49.6569 380.795 48 380.795H36Z" fill="#1F1F1F"/>
<path d="M72.8325 384.659V392.512C72.8325 393.895 72.4147 394.983 71.5791 395.774C70.7435 396.565 69.5952 396.961 68.1343 396.961C66.6733 396.961 65.5417 396.562 64.7393 395.766C63.9424 394.969 63.5439 393.873 63.5439 392.479V384.659H64.9551V392.578C64.9551 393.591 65.2318 394.368 65.7852 394.911C66.3385 395.453 67.152 395.724 68.2256 395.724C69.2493 395.724 70.0379 395.453 70.5913 394.911C71.1447 394.363 71.4214 393.58 71.4214 392.562V384.659H72.8325ZM82.0713 396.795V390.91C82.0713 390.168 81.9025 389.615 81.5649 389.25C81.2274 388.884 80.6989 388.702 79.9795 388.702C79.0277 388.702 78.3304 388.959 77.8877 389.474C77.445 389.988 77.2236 390.838 77.2236 392.022V396.795H75.8457V387.697H76.9663L77.1904 388.942H77.2568C77.5391 388.494 77.9347 388.148 78.4438 387.905C78.953 387.656 79.5202 387.531 80.1455 387.531C81.2412 387.531 82.0658 387.797 82.6191 388.328C83.1725 388.854 83.4492 389.698 83.4492 390.86V396.795H82.0713ZM92.4805 395.575H92.4058C91.7694 396.499 90.8175 396.961 89.5503 396.961C88.3605 396.961 87.4336 396.554 86.7695 395.741C86.111 394.927 85.7817 393.771 85.7817 392.271C85.7817 390.771 86.1138 389.606 86.7778 388.776C87.4419 387.946 88.366 387.531 89.5503 387.531C90.7843 387.531 91.7306 387.979 92.3892 388.876H92.4971L92.439 388.22L92.4058 387.581V383.879H93.7837V396.795H92.6631L92.4805 395.575ZM89.7246 395.807C90.6654 395.807 91.346 395.553 91.7666 395.043C92.1927 394.529 92.4058 393.701 92.4058 392.562V392.271C92.4058 390.982 92.1899 390.063 91.7583 389.515C91.3322 388.962 90.6488 388.685 89.708 388.685C88.9001 388.685 88.2803 389 87.8486 389.631C87.4225 390.257 87.2095 391.142 87.2095 392.288C87.2095 393.45 87.4225 394.327 87.8486 394.919C88.2747 395.511 88.9001 395.807 89.7246 395.807ZM100.557 396.961C99.2124 396.961 98.1499 396.551 97.3696 395.732C96.5949 394.913 96.2075 393.776 96.2075 392.321C96.2075 390.854 96.5672 389.689 97.2866 388.826C98.0116 387.963 98.9827 387.531 100.2 387.531C101.34 387.531 102.242 387.908 102.906 388.66C103.57 389.407 103.902 390.395 103.902 391.624V392.495H97.6353C97.6629 393.563 97.9313 394.374 98.4404 394.927C98.9551 395.481 99.6772 395.757 100.607 395.757C101.586 395.757 102.555 395.553 103.512 395.143V396.372C103.025 396.582 102.563 396.731 102.126 396.82C101.694 396.914 101.171 396.961 100.557 396.961ZM100.184 388.685C99.4531 388.685 98.8693 388.923 98.4321 389.399C98.0005 389.875 97.7459 390.533 97.6685 391.375H102.425C102.425 390.506 102.231 389.842 101.844 389.382C101.456 388.917 100.903 388.685 100.184 388.685ZM110.41 387.531C110.814 387.531 111.177 387.564 111.498 387.631L111.307 388.909C110.93 388.826 110.598 388.785 110.311 388.785C109.575 388.785 108.944 389.083 108.418 389.681C107.898 390.279 107.638 391.023 107.638 391.914V396.795H106.26V387.697H107.397L107.555 389.382H107.621C107.959 388.79 108.365 388.334 108.841 388.013C109.317 387.692 109.84 387.531 110.41 387.531ZM120.628 396.795L118.96 391.458C118.855 391.131 118.658 390.389 118.371 389.233H118.304C118.083 390.201 117.889 390.948 117.723 391.474L116.005 396.795H114.411L111.929 387.697H113.374C113.96 389.983 114.406 391.723 114.71 392.918C115.02 394.114 115.197 394.919 115.241 395.334H115.308C115.368 395.019 115.465 394.612 115.598 394.114C115.736 393.61 115.855 393.212 115.955 392.918L117.624 387.697H119.118L120.745 392.918C121.055 393.87 121.265 394.67 121.375 395.317H121.442C121.464 395.118 121.522 394.811 121.616 394.396C121.716 393.981 122.294 391.748 123.351 387.697H124.779L122.264 396.795H120.628ZM130.581 387.531C130.985 387.531 131.347 387.564 131.668 387.631L131.478 388.909C131.101 388.826 130.769 388.785 130.481 388.785C129.745 388.785 129.115 389.083 128.589 389.681C128.069 390.279 127.809 391.023 127.809 391.914V396.795H126.431V387.697H127.568L127.726 389.382H127.792C128.13 388.79 128.536 388.334 129.012 388.013C129.488 387.692 130.011 387.531 130.581 387.531ZM134.748 396.795H133.37V387.697H134.748V396.795ZM133.254 385.232C133.254 384.917 133.331 384.687 133.486 384.543C133.641 384.394 133.835 384.319 134.067 384.319C134.289 384.319 134.48 384.394 134.64 384.543C134.801 384.692 134.881 384.922 134.881 385.232C134.881 385.542 134.801 385.774 134.64 385.929C134.48 386.079 134.289 386.153 134.067 386.153C133.835 386.153 133.641 386.079 133.486 385.929C133.331 385.774 133.254 385.542 133.254 385.232ZM140.608 395.824C140.852 395.824 141.087 395.807 141.314 395.774C141.541 395.735 141.721 395.696 141.854 395.658V396.712C141.704 396.784 141.483 396.842 141.189 396.886C140.902 396.936 140.642 396.961 140.409 396.961C138.649 396.961 137.77 396.034 137.77 394.18V388.768H136.466V388.104L137.77 387.531L138.351 385.589H139.147V387.697H141.787V388.768H139.147V394.122C139.147 394.67 139.278 395.09 139.538 395.384C139.798 395.677 140.155 395.824 140.608 395.824ZM145.058 396.795H143.68V387.697H145.058V396.795ZM143.563 385.232C143.563 384.917 143.641 384.687 143.796 384.543C143.951 384.394 144.145 384.319 144.377 384.319C144.598 384.319 144.789 384.394 144.95 384.543C145.11 384.692 145.19 384.922 145.19 385.232C145.19 385.542 145.11 385.774 144.95 385.929C144.789 386.079 144.598 386.153 144.377 386.153C144.145 386.153 143.951 386.079 143.796 385.929C143.641 385.774 143.563 385.542 143.563 385.232ZM154.205 396.795V390.91C154.205 390.168 154.036 389.615 153.699 389.25C153.361 388.884 152.833 388.702 152.113 388.702C151.161 388.702 150.464 388.959 150.021 389.474C149.579 389.988 149.357 390.838 149.357 392.022V396.795H147.979V387.697H149.1L149.324 388.942H149.391C149.673 388.494 150.069 388.148 150.578 387.905C151.087 387.656 151.654 387.531 152.279 387.531C153.375 387.531 154.2 387.797 154.753 388.328C155.306 388.854 155.583 389.698 155.583 390.86V396.795H154.205ZM165.868 387.697V388.569L164.183 388.768C164.338 388.962 164.476 389.216 164.598 389.532C164.719 389.842 164.78 390.193 164.78 390.586C164.78 391.477 164.476 392.188 163.867 392.719C163.258 393.25 162.423 393.516 161.36 393.516C161.089 393.516 160.835 393.494 160.597 393.45C160.01 393.76 159.717 394.15 159.717 394.62C159.717 394.869 159.819 395.055 160.024 395.176C160.229 395.292 160.58 395.351 161.078 395.351H162.688C163.674 395.351 164.429 395.558 164.955 395.973C165.486 396.388 165.751 396.991 165.751 397.783C165.751 398.79 165.347 399.556 164.54 400.082C163.732 400.613 162.553 400.879 161.003 400.879C159.814 400.879 158.895 400.658 158.248 400.215C157.606 399.772 157.285 399.147 157.285 398.339C157.285 397.785 157.462 397.307 157.816 396.903C158.17 396.499 158.668 396.225 159.31 396.081C159.078 395.976 158.881 395.813 158.721 395.591C158.566 395.37 158.488 395.113 158.488 394.819C158.488 394.487 158.577 394.197 158.754 393.948C158.931 393.699 159.21 393.458 159.592 393.226C159.122 393.032 158.737 392.703 158.438 392.238C158.145 391.773 157.999 391.242 157.999 390.644C157.999 389.648 158.297 388.882 158.895 388.345C159.493 387.802 160.339 387.531 161.435 387.531C161.911 387.531 162.34 387.587 162.722 387.697H165.868ZM158.613 398.322C158.613 398.815 158.82 399.188 159.235 399.443C159.65 399.697 160.245 399.825 161.02 399.825C162.177 399.825 163.032 399.65 163.585 399.302C164.144 398.959 164.423 398.491 164.423 397.899C164.423 397.406 164.271 397.063 163.967 396.87C163.662 396.681 163.09 396.587 162.249 396.587H160.597C159.971 396.587 159.484 396.737 159.136 397.036C158.787 397.334 158.613 397.763 158.613 398.322ZM159.36 390.611C159.36 391.247 159.54 391.729 159.899 392.055C160.259 392.382 160.76 392.545 161.402 392.545C162.747 392.545 163.419 391.892 163.419 390.586C163.419 389.219 162.738 388.536 161.377 388.536C160.729 388.536 160.231 388.71 159.883 389.059C159.534 389.407 159.36 389.925 159.36 390.611Z" fill="#1F1F1F"/>
<path fill-rule="evenodd" clip-rule="evenodd" d="M48 425.795H36C34.8954 425.795 34 426.69 34 427.795V439.795C34 440.899 34.8954 441.795 36 441.795H48C49.1046 441.795 50 440.899 50 439.795V427.795C50 426.69 49.1046 425.795 48 425.795ZM36 424.795C34.3431 424.795 33 426.138 33 427.795V439.795C33 441.452 34.3431 442.795 36 442.795H48C49.6569 442.795 51 441.452 51 439.795V427.795C51 426.138 49.6569 424.795 48 424.795H36Z" fill="#1F1F1F"/>
<path d="M68.8647 429.747C67.5311 429.747 66.4769 430.192 65.7021 431.083C64.9329 431.968 64.5483 433.183 64.5483 434.727C64.5483 436.315 64.9191 437.544 65.6606 438.413C66.4077 439.276 67.4702 439.708 68.8481 439.708C69.6948 439.708 70.6605 439.555 71.7451 439.251V440.488C70.904 440.803 69.8664 440.961 68.6323 440.961C66.8449 440.961 65.4642 440.419 64.4902 439.334C63.5218 438.249 63.0376 436.708 63.0376 434.71C63.0376 433.46 63.27 432.364 63.7349 431.423C64.2052 430.483 64.8804 429.758 65.7603 429.249C66.6457 428.739 67.686 428.485 68.8813 428.485C70.1541 428.485 71.2664 428.717 72.2183 429.182L71.6206 430.394C70.702 429.962 69.7834 429.747 68.8647 429.747ZM75.5635 440.795H74.1855V427.879H75.5635V440.795ZM86.3379 436.238C86.3379 437.721 85.9644 438.88 85.2173 439.716C84.4702 440.546 83.4382 440.961 82.1211 440.961C81.3076 440.961 80.5854 440.77 79.9546 440.388C79.3237 440.006 78.8368 439.458 78.4937 438.745C78.1506 438.031 77.979 437.195 77.979 436.238C77.979 434.755 78.3498 433.601 79.0913 432.776C79.8328 431.946 80.8621 431.531 82.1792 431.531C83.452 431.531 84.4619 431.955 85.209 432.801C85.9616 433.648 86.3379 434.793 86.3379 436.238ZM79.4067 436.238C79.4067 437.4 79.6392 438.285 80.104 438.894C80.5688 439.503 81.2523 439.807 82.1543 439.807C83.0563 439.807 83.7397 439.506 84.2046 438.902C84.675 438.294 84.9102 437.405 84.9102 436.238C84.9102 435.081 84.675 434.204 84.2046 433.606C83.7397 433.003 83.0508 432.702 82.1377 432.702C81.2357 432.702 80.555 432.998 80.0957 433.59C79.6364 434.182 79.4067 435.065 79.4067 436.238ZM94.6304 438.313C94.6304 439.16 94.3149 439.813 93.6841 440.272C93.0532 440.731 92.1678 440.961 91.0278 440.961C89.8215 440.961 88.8807 440.77 88.2056 440.388V439.11C88.6427 439.331 89.1104 439.506 89.6084 439.633C90.112 439.76 90.5962 439.824 91.061 439.824C91.7804 439.824 92.3338 439.71 92.7212 439.483C93.1086 439.251 93.3022 438.9 93.3022 438.429C93.3022 438.075 93.1473 437.773 92.8374 437.524C92.533 437.27 91.9354 436.971 91.0444 436.628C90.1978 436.312 89.5946 436.039 89.2349 435.806C88.8807 435.568 88.6151 435.3 88.438 435.001C88.2664 434.702 88.1807 434.345 88.1807 433.93C88.1807 433.189 88.4823 432.605 89.0854 432.179C89.6886 431.747 90.516 431.531 91.5674 431.531C92.5469 431.531 93.5042 431.73 94.4395 432.129L93.9497 433.25C93.0366 432.873 92.2093 432.685 91.4678 432.685C90.8148 432.685 90.3223 432.787 89.9902 432.992C89.6582 433.197 89.4922 433.479 89.4922 433.839C89.4922 434.082 89.5531 434.29 89.6748 434.461C89.8021 434.633 90.0041 434.796 90.2808 434.951C90.5575 435.106 91.0887 435.33 91.8745 435.624C92.9536 436.016 93.6813 436.412 94.0576 436.811C94.4395 437.209 94.6304 437.71 94.6304 438.313ZM98.2578 440.795H96.8799V431.697H98.2578V440.795ZM96.7637 429.232C96.7637 428.917 96.8411 428.687 96.9961 428.543C97.151 428.394 97.3447 428.319 97.5771 428.319C97.7985 428.319 97.9894 428.394 98.1499 428.543C98.3104 428.692 98.3906 428.922 98.3906 429.232C98.3906 429.542 98.3104 429.774 98.1499 429.929C97.9894 430.079 97.7985 430.153 97.5771 430.153C97.3447 430.153 97.151 430.079 96.9961 429.929C96.8411 429.774 96.7637 429.542 96.7637 429.232ZM107.405 440.795V434.91C107.405 434.168 107.236 433.615 106.899 433.25C106.561 432.884 106.033 432.702 105.313 432.702C104.362 432.702 103.664 432.959 103.222 433.474C102.779 433.988 102.558 434.838 102.558 436.022V440.795H101.18V431.697H102.3L102.524 432.942H102.591C102.873 432.494 103.269 432.148 103.778 431.905C104.287 431.656 104.854 431.531 105.479 431.531C106.575 431.531 107.4 431.797 107.953 432.328C108.507 432.854 108.783 433.698 108.783 434.86V440.795H107.405ZM119.068 431.697V432.569L117.383 432.768C117.538 432.962 117.676 433.216 117.798 433.532C117.92 433.842 117.98 434.193 117.98 434.586C117.98 435.477 117.676 436.188 117.067 436.719C116.459 437.25 115.623 437.516 114.561 437.516C114.289 437.516 114.035 437.494 113.797 437.45C113.21 437.76 112.917 438.15 112.917 438.62C112.917 438.869 113.019 439.055 113.224 439.176C113.429 439.292 113.78 439.351 114.278 439.351H115.889C116.874 439.351 117.629 439.558 118.155 439.973C118.686 440.388 118.952 440.991 118.952 441.783C118.952 442.79 118.548 443.556 117.74 444.082C116.932 444.613 115.753 444.879 114.204 444.879C113.014 444.879 112.095 444.658 111.448 444.215C110.806 443.772 110.485 443.147 110.485 442.339C110.485 441.785 110.662 441.307 111.016 440.903C111.37 440.499 111.868 440.225 112.51 440.081C112.278 439.976 112.081 439.813 111.921 439.591C111.766 439.37 111.688 439.113 111.688 438.819C111.688 438.487 111.777 438.197 111.954 437.948C112.131 437.699 112.411 437.458 112.792 437.226C112.322 437.032 111.938 436.703 111.639 436.238C111.345 435.773 111.199 435.242 111.199 434.644C111.199 433.648 111.498 432.882 112.095 432.345C112.693 431.802 113.54 431.531 114.635 431.531C115.111 431.531 115.54 431.587 115.922 431.697H119.068ZM111.813 442.322C111.813 442.815 112.021 443.188 112.436 443.443C112.851 443.697 113.445 443.825 114.22 443.825C115.377 443.825 116.232 443.65 116.785 443.302C117.344 442.959 117.624 442.491 117.624 441.899C117.624 441.406 117.471 441.063 117.167 440.87C116.863 440.681 116.29 440.587 115.449 440.587H113.797C113.172 440.587 112.685 440.737 112.336 441.036C111.987 441.334 111.813 441.763 111.813 442.322ZM112.56 434.611C112.56 435.247 112.74 435.729 113.1 436.055C113.459 436.382 113.96 436.545 114.602 436.545C115.947 436.545 116.619 435.892 116.619 434.586C116.619 433.219 115.938 432.536 114.577 432.536C113.93 432.536 113.432 432.71 113.083 433.059C112.734 433.407 112.56 433.925 112.56 434.611ZM135.246 434.611C135.246 436.614 134.701 438.147 133.611 439.209C132.526 440.266 130.963 440.795 128.921 440.795H125.559V428.659H129.278C131.165 428.659 132.631 429.182 133.677 430.228C134.723 431.274 135.246 432.735 135.246 434.611ZM133.752 434.661C133.752 433.078 133.354 431.885 132.557 431.083C131.765 430.281 130.587 429.879 129.021 429.879H126.97V439.575H128.688C130.371 439.575 131.635 439.162 132.482 438.338C133.329 437.508 133.752 436.282 133.752 434.661ZM139.131 440.795H137.753V431.697H139.131V440.795ZM137.637 429.232C137.637 428.917 137.714 428.687 137.869 428.543C138.024 428.394 138.218 428.319 138.45 428.319C138.672 428.319 138.862 428.394 139.023 428.543C139.183 428.692 139.264 428.922 139.264 429.232C139.264 429.542 139.183 429.774 139.023 429.929C138.862 430.079 138.672 430.153 138.45 430.153C138.218 430.153 138.024 430.079 137.869 429.929C137.714 429.774 137.637 429.542 137.637 429.232ZM147.921 438.313C147.921 439.16 147.606 439.813 146.975 440.272C146.344 440.731 145.459 440.961 144.319 440.961C143.112 440.961 142.172 440.77 141.497 440.388V439.11C141.934 439.331 142.401 439.506 142.899 439.633C143.403 439.76 143.887 439.824 144.352 439.824C145.071 439.824 145.625 439.71 146.012 439.483C146.4 439.251 146.593 438.9 146.593 438.429C146.593 438.075 146.438 437.773 146.128 437.524C145.824 437.27 145.226 436.971 144.335 436.628C143.489 436.312 142.886 436.039 142.526 435.806C142.172 435.568 141.906 435.3 141.729 435.001C141.557 434.702 141.472 434.345 141.472 433.93C141.472 433.189 141.773 432.605 142.376 432.179C142.98 431.747 143.807 431.531 144.858 431.531C145.838 431.531 146.795 431.73 147.73 432.129L147.241 433.25C146.328 432.873 145.5 432.685 144.759 432.685C144.106 432.685 143.613 432.787 143.281 432.992C142.949 433.197 142.783 433.479 142.783 433.839C142.783 434.082 142.844 434.29 142.966 434.461C143.093 434.633 143.295 434.796 143.572 434.951C143.848 435.106 144.38 435.33 145.166 435.624C146.245 436.016 146.972 436.412 147.349 436.811C147.73 437.209 147.921 437.71 147.921 438.313ZM153.807 440.961C152.49 440.961 151.469 440.557 150.744 439.749C150.024 438.936 149.665 437.787 149.665 436.304C149.665 434.782 150.03 433.606 150.76 432.776C151.496 431.946 152.542 431.531 153.898 431.531C154.335 431.531 154.772 431.578 155.209 431.672C155.647 431.766 155.99 431.877 156.239 432.004L155.815 433.175C155.511 433.053 155.179 432.953 154.819 432.876C154.46 432.793 154.141 432.751 153.865 432.751C152.016 432.751 151.092 433.93 151.092 436.288C151.092 437.405 151.316 438.263 151.765 438.861C152.218 439.458 152.888 439.757 153.773 439.757C154.532 439.757 155.309 439.594 156.106 439.268V440.488C155.497 440.803 154.731 440.961 153.807 440.961ZM159.65 440.795H158.272V427.879H159.65V440.795ZM170.425 436.238C170.425 437.721 170.051 438.88 169.304 439.716C168.557 440.546 167.525 440.961 166.208 440.961C165.395 440.961 164.672 440.77 164.042 440.388C163.411 440.006 162.924 439.458 162.581 438.745C162.237 438.031 162.066 437.195 162.066 436.238C162.066 434.755 162.437 433.601 163.178 432.776C163.92 431.946 164.949 431.531 166.266 431.531C167.539 431.531 168.549 431.955 169.296 432.801C170.049 433.648 170.425 434.793 170.425 436.238ZM163.494 436.238C163.494 437.4 163.726 438.285 164.191 438.894C164.656 439.503 165.339 439.807 166.241 439.807C167.143 439.807 167.827 439.506 168.292 438.902C168.762 438.294 168.997 437.405 168.997 436.238C168.997 435.081 168.762 434.204 168.292 433.606C167.827 433.003 167.138 432.702 166.225 432.702C165.323 432.702 164.642 432.998 164.183 433.59C163.723 434.182 163.494 435.065 163.494 436.238ZM178.717 438.313C178.717 439.16 178.402 439.813 177.771 440.272C177.14 440.731 176.255 440.961 175.115 440.961C173.908 440.961 172.968 440.77 172.292 440.388V439.11C172.73 439.331 173.197 439.506 173.695 439.633C174.199 439.76 174.683 439.824 175.148 439.824C175.867 439.824 176.421 439.71 176.808 439.483C177.195 439.251 177.389 438.9 177.389 438.429C177.389 438.075 177.234 437.773 176.924 437.524C176.62 437.27 176.022 436.971 175.131 436.628C174.285 436.312 173.681 436.039 173.322 435.806C172.968 435.568 172.702 435.3 172.525 435.001C172.353 434.702 172.268 434.345 172.268 433.93C172.268 433.189 172.569 432.605 173.172 432.179C173.776 431.747 174.603 431.531 175.654 431.531C176.634 431.531 177.591 431.73 178.526 432.129L178.037 433.25C177.124 432.873 176.296 432.685 175.555 432.685C174.902 432.685 174.409 432.787 174.077 432.992C173.745 433.197 173.579 433.479 173.579 433.839C173.579 434.082 173.64 434.29 173.762 434.461C173.889 434.633 174.091 434.796 174.368 434.951C174.644 435.106 175.176 435.33 175.961 435.624C177.041 436.016 177.768 436.412 178.145 436.811C178.526 437.209 178.717 437.71 178.717 438.313ZM182.262 431.697V437.599C182.262 438.341 182.431 438.894 182.768 439.259C183.106 439.625 183.634 439.807 184.354 439.807C185.305 439.807 186 439.547 186.437 439.027C186.88 438.507 187.101 437.657 187.101 436.479V431.697H188.479V440.795H187.342L187.143 439.575H187.068C186.786 440.023 186.393 440.366 185.889 440.604C185.391 440.842 184.821 440.961 184.179 440.961C183.072 440.961 182.242 440.698 181.689 440.172C181.141 439.647 180.867 438.806 180.867 437.649V431.697H182.262ZM195.56 431.531C195.964 431.531 196.326 431.564 196.647 431.631L196.456 432.909C196.08 432.826 195.748 432.785 195.46 432.785C194.724 432.785 194.093 433.083 193.567 433.681C193.047 434.279 192.787 435.023 192.787 435.914V440.795H191.409V431.697H192.546L192.704 433.382H192.771C193.108 432.79 193.515 432.334 193.991 432.013C194.467 431.692 194.99 431.531 195.56 431.531ZM202.192 440.961C200.847 440.961 199.785 440.551 199.004 439.732C198.23 438.913 197.842 437.776 197.842 436.321C197.842 434.854 198.202 433.689 198.921 432.826C199.646 431.963 200.618 431.531 201.835 431.531C202.975 431.531 203.877 431.908 204.541 432.66C205.205 433.407 205.537 434.395 205.537 435.624V436.495H199.27C199.298 437.563 199.566 438.374 200.075 438.927C200.59 439.481 201.312 439.757 202.242 439.757C203.221 439.757 204.19 439.553 205.147 439.143V440.372C204.66 440.582 204.198 440.731 203.761 440.82C203.329 440.914 202.806 440.961 202.192 440.961ZM201.818 432.685C201.088 432.685 200.504 432.923 200.067 433.399C199.635 433.875 199.381 434.533 199.303 435.375H204.06C204.06 434.506 203.866 433.842 203.479 433.382C203.091 432.917 202.538 432.685 201.818 432.685Z" fill="#1F1F1F"/>
<path fill-rule="evenodd" clip-rule="evenodd" d="M48 469.795H36C34.8954 469.795 34 470.69 34 471.795V483.795C34 484.899 34.8954 485.795 36 485.795H48C49.1046 485.795 50 484.899 50 483.795V471.795C50 470.69 49.1046 469.795 48 469.795ZM36 468.795C34.3431 468.795 33 470.138 33 471.795V483.795C33 485.452 34.3431 486.795 36 486.795H48C49.6569 486.795 51 485.452 51 483.795V471.795C51 470.138 49.6569 468.795 48 468.795H36Z" fill="#1F1F1F"/>
<path d="M65.0796 484.795H63.6685V472.659H70.4336V473.913H65.0796V478.354H70.1099V479.607H65.0796V484.795ZM73.5381 475.697V481.599C73.5381 482.341 73.7069 482.894 74.0444 483.259C74.382 483.625 74.9105 483.807 75.6299 483.807C76.5817 483.807 77.2762 483.547 77.7134 483.027C78.1561 482.507 78.3774 481.657 78.3774 480.479V475.697H79.7554V484.795H78.6182L78.4189 483.575H78.3442C78.062 484.023 77.6691 484.366 77.1655 484.604C76.6675 484.842 76.0975 484.961 75.4556 484.961C74.3488 484.961 73.5187 484.698 72.9653 484.172C72.4175 483.647 72.1436 482.806 72.1436 481.649V475.697H73.5381ZM88.9111 484.795V478.91C88.9111 478.168 88.7424 477.615 88.4048 477.25C88.0672 476.884 87.5387 476.702 86.8193 476.702C85.8675 476.702 85.1702 476.959 84.7275 477.474C84.2848 477.988 84.0635 478.838 84.0635 480.022V484.795H82.6855V475.697H83.8062L84.0303 476.942H84.0967C84.3789 476.494 84.7746 476.148 85.2837 475.905C85.7928 475.656 86.36 475.531 86.9854 475.531C88.0811 475.531 88.9056 475.797 89.459 476.328C90.0124 476.854 90.2891 477.698 90.2891 478.86V484.795H88.9111ZM99.3203 483.575H99.2456C98.6092 484.499 97.6574 484.961 96.3901 484.961C95.2004 484.961 94.2734 484.554 93.6094 483.741C92.9508 482.927 92.6216 481.771 92.6216 480.271C92.6216 478.771 92.9536 477.606 93.6177 476.776C94.2817 475.946 95.2059 475.531 96.3901 475.531C97.6242 475.531 98.5705 475.979 99.229 476.876H99.3369L99.2788 476.22L99.2456 475.581V471.879H100.624V484.795H99.5029L99.3203 483.575ZM96.5645 483.807C97.5052 483.807 98.1859 483.553 98.6064 483.043C99.0326 482.529 99.2456 481.701 99.2456 480.562V480.271C99.2456 478.982 99.0298 478.063 98.5981 477.515C98.172 476.962 97.4886 476.685 96.5479 476.685C95.7399 476.685 95.1201 477 94.6885 477.631C94.2624 478.257 94.0493 479.142 94.0493 480.288C94.0493 481.45 94.2624 482.327 94.6885 482.919C95.1146 483.511 95.7399 483.807 96.5645 483.807ZM104.932 484.795H103.554V475.697H104.932V484.795ZM103.438 473.232C103.438 472.917 103.515 472.687 103.67 472.543C103.825 472.394 104.019 472.319 104.251 472.319C104.472 472.319 104.663 472.394 104.824 472.543C104.984 472.692 105.064 472.922 105.064 473.232C105.064 473.542 104.984 473.774 104.824 473.929C104.663 474.079 104.472 474.153 104.251 474.153C104.019 474.153 103.825 474.079 103.67 473.929C103.515 473.774 103.438 473.542 103.438 473.232ZM114.079 484.795V478.91C114.079 478.168 113.91 477.615 113.573 477.25C113.235 476.884 112.707 476.702 111.987 476.702C111.035 476.702 110.338 476.959 109.896 477.474C109.453 477.988 109.231 478.838 109.231 480.022V484.795H107.854V475.697H108.974L109.198 476.942H109.265C109.547 476.494 109.943 476.148 110.452 475.905C110.961 475.656 111.528 475.531 112.153 475.531C113.249 475.531 114.074 475.797 114.627 476.328C115.18 476.854 115.457 477.698 115.457 478.86V484.795H114.079ZM125.742 475.697V476.569L124.057 476.768C124.212 476.962 124.35 477.216 124.472 477.532C124.593 477.842 124.654 478.193 124.654 478.586C124.654 479.477 124.35 480.188 123.741 480.719C123.132 481.25 122.297 481.516 121.234 481.516C120.963 481.516 120.709 481.494 120.471 481.45C119.884 481.76 119.591 482.15 119.591 482.62C119.591 482.869 119.693 483.055 119.898 483.176C120.103 483.292 120.454 483.351 120.952 483.351H122.562C123.548 483.351 124.303 483.558 124.829 483.973C125.36 484.388 125.625 484.991 125.625 485.783C125.625 486.79 125.222 487.556 124.414 488.082C123.606 488.613 122.427 488.879 120.877 488.879C119.688 488.879 118.769 488.658 118.122 488.215C117.48 487.772 117.159 487.147 117.159 486.339C117.159 485.785 117.336 485.307 117.69 484.903C118.044 484.499 118.542 484.225 119.184 484.081C118.952 483.976 118.755 483.813 118.595 483.591C118.44 483.37 118.362 483.113 118.362 482.819C118.362 482.487 118.451 482.197 118.628 481.948C118.805 481.699 119.084 481.458 119.466 481.226C118.996 481.032 118.611 480.703 118.312 480.238C118.019 479.773 117.873 479.242 117.873 478.644C117.873 477.648 118.171 476.882 118.769 476.345C119.367 475.802 120.213 475.531 121.309 475.531C121.785 475.531 122.214 475.587 122.596 475.697H125.742ZM118.487 486.322C118.487 486.815 118.694 487.188 119.109 487.443C119.524 487.697 120.119 487.825 120.894 487.825C122.051 487.825 122.906 487.65 123.459 487.302C124.018 486.959 124.297 486.491 124.297 485.899C124.297 485.406 124.145 485.063 123.841 484.87C123.536 484.681 122.964 484.587 122.123 484.587H120.471C119.845 484.587 119.358 484.737 119.01 485.036C118.661 485.334 118.487 485.763 118.487 486.322ZM119.234 478.611C119.234 479.247 119.414 479.729 119.773 480.055C120.133 480.382 120.634 480.545 121.276 480.545C122.621 480.545 123.293 479.892 123.293 478.586C123.293 477.219 122.612 476.536 121.251 476.536C120.604 476.536 120.105 476.71 119.757 477.059C119.408 477.407 119.234 477.925 119.234 478.611Z" fill="#1F1F1F"/>
</g>
<defs>
<filter id="filter0_ddd_346_148452" x="0" y="0.794922" width="278" height="526" filterUnits="userSpaceOnUse" color-interpolation-filters="sRGB">
<feFlood flood-opacity="0" result="BackgroundImageFix"/>
<feColorMatrix in="SourceAlpha" type="matrix" values="0 0 0 0 0 0 0 0 0 0 0 0 0 0 0 0 0 0 127 0" result="hardAlpha"/>
<feOffset dy="3"/>
<feGaussianBlur stdDeviation="3"/>
<feColorMatrix type="matrix" values="0 0 0 0 0.121569 0 0 0 0 0.121569 0 0 0 0 0.121569 0 0 0 0.08 0"/>
<feBlend mode="normal" in2="BackgroundImageFix" result="effect1_dropShadow_346_148452"/>
<feColorMatrix in="SourceAlpha" type="matrix" values="0 0 0 0 0 0 0 0 0 0 0 0 0 0 0 0 0 0 127 0" result="hardAlpha"/>
<feOffset dy="7"/>
<feGaussianBlur stdDeviation="7"/>
<feColorMatrix type="matrix" values="0 0 0 0 0.121569 0 0 0 0 0.121569 0 0 0 0 0.121569 0 0 0 0.08 0"/>
<feBlend mode="normal" in2="effect1_dropShadow_346_148452" result="effect2_dropShadow_346_148452"/>
<feColorMatrix in="SourceAlpha" type="matrix" values="0 0 0 0 0 0 0 0 0 0 0 0 0 0 0 0 0 0 127 0" result="hardAlpha"/>
<feOffset dy="5"/>
<feGaussianBlur stdDeviation="5"/>
<feColorMatrix type="matrix" values="0 0 0 0 0.121569 0 0 0 0 0.121569 0 0 0 0 0.121569 0 0 0 0.1 0"/>
<feBlend mode="normal" in2="effect2_dropShadow_346_148452" result="effect3_dropShadow_346_148452"/>
<feBlend mode="normal" in="SourceGraphic" in2="effect3_dropShadow_346_148452" result="shape"/>
</filter>
</defs>
</svg>
